<?xml version="1.0" encoding="UTF-8"?>
<!DOCTYPE svg PUBLIC "-//W3C//DTD SVG 1.1//EN" "http://www.w3.org/Graphics/SVG/1.1/DTD/svg11.dtd">
<svg xmlns="http://www.w3.org/2000/svg" version="1.1" width="40px" height="40px" style="shape-rendering:geometricPrecision; text-rendering:geometricPrecision; image-rendering:optimizeQuality; fill-rule:evenodd; clip-rule:evenodd" xmlns:xlink="http://www.w3.org/1999/xlink">
<g><path style="opacity:0.854" fill="#464b55" d="M 27.5,9.5 C 26.6618,9.84171 26.3284,10.5084 26.5,11.5C 25.6252,9.43191 24.4585,7.43191 23,5.5C 22.7679,6.73747 22.2679,7.73747 21.5,8.5C 21.7373,7.20895 21.404,6.20895 20.5,5.5C 21.2039,3.65579 22.5372,3.15579 24.5,4C 26.16,5.48765 27.16,7.32099 27.5,9.5 Z"/></g>
<g><path style="opacity:0.863" fill="#4f545f" d="M 20.5,5.5 C 21.404,6.20895 21.7373,7.20895 21.5,8.5C 22.8333,10.8333 24.1667,13.1667 25.5,15.5C 24.522,17.4561 23.522,19.4561 22.5,21.5C 20.8819,18.8291 20.2153,15.8291 20.5,12.5C 20.719,11.325 20.3857,10.325 19.5,9.5C 18.8933,9.62358 18.56,9.95691 18.5,10.5C 16.7772,12.2181 14.7772,13.5514 12.5,14.5C 12.5,13.8333 12.1667,13.5 11.5,13.5C 14.4744,10.8621 17.4744,8.19539 20.5,5.5 Z"/></g>
<g><path style="opacity:0.791" fill="#4f545f" d="M 33.5,3.5 C 35.0281,3.51731 35.5281,4.18398 35,5.5C 33.6766,8.05865 31.8433,8.72532 29.5,7.5C 31.188,6.4787 32.5213,5.14537 33.5,3.5 Z"/></g>
<g><path style="opacity:0.149" fill="#292d32" d="M 18.5,10.5 C 18.56,9.95691 18.8933,9.62358 19.5,9.5C 20.3857,10.325 20.719,11.325 20.5,12.5C 19.8333,11.8333 19.1667,11.1667 18.5,10.5 Z"/></g>
<g><path style="opacity:0.859" fill="#5d636f" d="M 36.5,14.5 C 35.209,14.7373 34.209,14.404 33.5,13.5C 35.166,12.3336 36.8327,12.3336 38.5,13.5C 38.0431,14.2975 37.3764,14.6309 36.5,14.5 Z"/></g>
<g><path style="opacity:0.895" fill="#494e58" d="M 11.5,13.5 C 12.1667,13.5 12.5,13.8333 12.5,14.5C 11.2196,15.9313 9.55292,16.5979 7.5,16.5C 6.79105,15.596 5.79105,15.2627 4.5,15.5C 6.59937,14.3882 8.93271,13.7215 11.5,13.5 Z"/></g>
<g><path style="opacity:0.32" fill="#2a2d33" d="M 33.5,13.5 C 34.209,14.404 35.209,14.7373 36.5,14.5C 35.2918,15.782 33.9584,15.782 32.5,14.5C 32.6236,13.8933 32.9569,13.56 33.5,13.5 Z"/></g>
<g><path style="opacity:0.813" fill="#555a65" d="M 2.5,16.5 C 2.84171,15.6618 3.50838,15.3284 4.5,15.5C 5.79105,15.2627 6.79105,15.596 7.5,16.5C 6.70927,18.3093 6.70927,20.3093 7.5,22.5C 6.66175,22.8417 6.32842,23.5084 6.5,24.5C 5.38815,22.4006 4.72148,20.0673 4.5,17.5C 4.15829,16.6618 3.49162,16.3284 2.5,16.5 Z"/></g>
<g><path style="opacity:0.753" fill="#4d535d" d="M 27.5,9.5 C 30.4405,15.4969 31.1072,21.8302 29.5,28.5C 28.3864,29.7759 27.3864,29.7759 26.5,28.5C 27.1667,27.8333 27.8333,27.1667 28.5,26.5C 28.5698,21.3909 27.9031,16.3909 26.5,11.5C 26.3284,10.5084 26.6618,9.84171 27.5,9.5 Z"/></g>
<g><path style="opacity:0.753" fill="#4d525c" d="M 2.5,16.5 C 3.49162,16.3284 4.15829,16.6618 4.5,17.5C 2.2729,18.4006 1.2729,20.0672 1.5,22.5C 0.661754,22.8417 0.32842,23.5084 0.5,24.5C 0.166667,24.5 -0.166667,24.5 -0.5,24.5C -0.5,22.5 -0.5,20.5 -0.5,18.5C 0.222348,17.4489 1.22235,16.7822 2.5,16.5 Z"/></g>
<g><path style="opacity:0.87" fill="#5f6571" d="M 25.5,15.5 C 26.7651,18.0033 26.4318,20.3366 24.5,22.5C 24.7373,23.791 24.404,24.791 23.5,25.5C 23.7373,24.209 23.404,23.209 22.5,22.5C 22.5,22.1667 22.5,21.8333 22.5,21.5C 23.522,19.4561 24.522,17.4561 25.5,15.5 Z"/></g>
<g><path style="opacity:0.767" fill="#515761" d="M 39.5,21.5 C 39.5,22.1667 39.5,22.8333 39.5,23.5C 37.1727,23.7529 35.1727,23.0863 33.5,21.5C 35.4012,20.7691 37.4012,20.7691 39.5,21.5 Z"/></g>
<g><path style="opacity:0.888" fill="#535863" d="M 1.5,22.5 C 2.82325,24.6824 4.48992,25.3491 6.5,24.5C 6.32842,23.5084 6.66175,22.8417 7.5,22.5C 7.81103,23.4778 8.4777,24.1445 9.5,24.5C 13.4979,23.2403 17.4979,23.2403 21.5,24.5C 21.5,24.8333 21.5,25.1667 21.5,25.5C 20.1667,25.5 18.8333,25.5 17.5,25.5C 16.5084,25.3284 15.8417,25.6618 15.5,26.5C 14.8333,26.5 14.1667,26.5 13.5,26.5C 12.8333,26.1667 12.1667,25.8333 11.5,25.5C 10.5489,26.9187 10.2155,28.5853 10.5,30.5C 9.44153,29.3998 8.6082,28.0664 8,26.5C 4.9388,27.943 2.4388,27.2764 0.5,24.5C 0.32842,23.5084 0.661754,22.8417 1.5,22.5 Z"/></g>
<g><path style="opacity:0.016" fill="#24272c" d="M 22.5,22.5 C 23.404,23.209 23.7373,24.209 23.5,25.5C 22.8333,25.5 22.1667,25.5 21.5,25.5C 21.5,25.1667 21.5,24.8333 21.5,24.5C 22.3382,24.1583 22.6716,23.4916 22.5,22.5 Z"/></g>
<g><path style="opacity:0.866" fill="#4d535d" d="M 24.5,22.5 C 25.393,24.297 26.7263,25.6304 28.5,26.5C 27.8333,27.1667 27.1667,27.8333 26.5,28.5C 23.341,27.6693 20.341,26.6693 17.5,25.5C 18.8333,25.5 20.1667,25.5 21.5,25.5C 22.1667,25.5 22.8333,25.5 23.5,25.5C 24.404,24.791 24.7373,23.791 24.5,22.5 Z"/></g>
<g><path style="opacity:0.843" fill="#505560" d="M 11.5,25.5 C 11.281,26.675 11.6143,27.675 12.5,28.5C 13.2975,28.0431 13.6309,27.3764 13.5,26.5C 14.1667,26.5 14.8333,26.5 15.5,26.5C 17.4436,28.9913 18.1102,31.658 17.5,34.5C 13.2758,36.5185 10.9425,35.1851 10.5,30.5C 10.2155,28.5853 10.5489,26.9187 11.5,25.5 Z M 12.5,31.5 C 13.209,30.596 14.209,30.2627 15.5,30.5C 15.3059,34.0048 14.3059,34.3382 12.5,31.5 Z"/></g>
</svg>
