<?xml version="1.0" encoding="UTF-8"?>
<!DOCTYPE svg PUBLIC "-//W3C//DTD SVG 1.1//EN" "http://www.w3.org/Graphics/SVG/1.1/DTD/svg11.dtd">
<svg xmlns="http://www.w3.org/2000/svg" version="1.1" width="40px" height="40px" style="shape-rendering:geometricPrecision; text-rendering:geometricPrecision; image-rendering:optimizeQuality; fill-rule:evenodd; clip-rule:evenodd" xmlns:xlink="http://www.w3.org/1999/xlink">
<g><path style="opacity:0.777" fill="#505560" d="M 2.5,-0.5 C 13.8333,-0.5 25.1667,-0.5 36.5,-0.5C 36.5,-0.166667 36.5,0.166667 36.5,0.5C 35.8333,10.5 35.1667,20.5 34.5,30.5C 34.5,20.8333 34.5,11.1667 34.5,1.5C 24.5,1.5 14.5,1.5 4.5,1.5C 4.5,13.5 4.5,25.5 4.5,37.5C 3.83333,37.8333 3.16667,38.1667 2.5,38.5C 2.5,25.5 2.5,12.5 2.5,-0.5 Z"/></g>
<g><path style="opacity:0.933" fill="#5a606c" d="M 36.5,0.5 C 36.6665,11.505 36.4998,22.505 36,33.5C 33.6647,35.4002 31.498,37.4002 29.5,39.5C 20.5,39.5 11.5,39.5 2.5,39.5C 2.5,39.1667 2.5,38.8333 2.5,38.5C 3.16667,38.1667 3.83333,37.8333 4.5,37.5C 12.1667,37.5 19.8333,37.5 27.5,37.5C 27.5,35.1667 27.5,32.8333 27.5,30.5C 29.8333,30.5 32.1667,30.5 34.5,30.5C 35.1667,20.5 35.8333,10.5 36.5,0.5 Z M 29.5,32.5 C 30.791,32.2627 31.791,32.596 32.5,33.5C 31.5416,33.9528 30.7083,34.6195 30,35.5C 29.5172,34.552 29.3505,33.552 29.5,32.5 Z"/></g>
<g><path style="opacity:0.853" fill="#4f545f" d="M 23.5,13.5 C 22.6618,13.1583 22.3284,12.4916 22.5,11.5C 22.848,9.28721 23.6813,7.28721 25,5.5C 25.956,6.57862 26.7894,7.74529 27.5,9C 28.7425,9.31139 29.7425,8.81139 30.5,7.5C 31.8876,8.59089 32.3876,9.92423 32,11.5C 31,12.8333 30,12.8333 29,11.5C 28.4304,14.8438 27.2638,15.1772 25.5,12.5C 24.8165,12.8627 24.1499,13.1961 23.5,13.5 Z"/></g>
<g><path style="opacity:0.122" fill="#40454d" d="M 6.5,5.5 C 11.5,5.5 16.5,5.5 21.5,5.5C 21.5,6.5 21.5,7.5 21.5,8.5C 16.5,8.5 11.5,8.5 6.5,8.5C 6.5,7.5 6.5,6.5 6.5,5.5 Z"/></g>
<g><path style="opacity:0.298" fill="#292d32" d="M 22.5,11.5 C 22.3284,12.4916 22.6618,13.1583 23.5,13.5C 22.6977,14.8847 22.0311,14.718 21.5,13C 21.5699,12.2352 21.9033,11.7352 22.5,11.5 Z"/></g>
<g><path style="opacity:0.376" fill="#41454e" d="M 6.5,12.5 C 10.8839,12.1744 15.2172,12.5078 19.5,13.5C 17.3333,13.8333 15.1667,14.1667 13,14.5C 10.3897,14.4668 8.22299,13.8001 6.5,12.5 Z"/></g>
<g><path style="opacity:0.624" fill="#676e7c" d="M 6.5,18.5 C 15.1922,18.1686 23.8589,18.502 32.5,19.5C 28.1667,19.8333 23.8333,20.1667 19.5,20.5C 14.7784,20.4921 10.4451,19.8255 6.5,18.5 Z"/></g>
<g><path style="opacity:0.369" fill="#454953" d="M 6.5,24.5 C 15.1922,24.1686 23.8589,24.502 32.5,25.5C 28.1667,25.8333 23.8333,26.1667 19.5,26.5C 14.7784,26.4921 10.4451,25.8255 6.5,24.5 Z"/></g>
<g><path style="opacity:0.12" fill="#34383e" d="M 24.5,31.5 C 18.642,31.1778 12.9753,31.5111 7.5,32.5C 6.95691,32.44 6.62358,32.1067 6.5,31.5C 12.6544,30.1834 18.6544,30.1834 24.5,31.5 Z"/></g>
<g><path style="opacity:0.498" fill="#30333a" d="M 29.5,32.5 C 30.7082,31.218 32.0416,31.218 33.5,32.5C 33.3764,33.1067 33.0431,33.44 32.5,33.5C 31.791,32.596 30.791,32.2627 29.5,32.5 Z"/></g>
<g><path style="opacity:0.124" fill="#454a53" d="M 24.5,31.5 C 25.7383,31.81 25.7383,32.31 24.5,33C 18.6513,33.8184 12.9846,33.6517 7.5,32.5C 12.9753,31.5111 18.642,31.1778 24.5,31.5 Z"/></g>
</svg>
