<?xml version="1.0" encoding="UTF-8"?>
<!DOCTYPE svg PUBLIC "-//W3C//DTD SVG 1.1//EN" "http://www.w3.org/Graphics/SVG/1.1/DTD/svg11.dtd">
<svg xmlns="http://www.w3.org/2000/svg" version="1.1" width="40px" height="40px" style="shape-rendering:geometricPrecision; text-rendering:geometricPrecision; image-rendering:optimizeQuality; fill-rule:evenodd; clip-rule:evenodd" xmlns:xlink="http://www.w3.org/1999/xlink">
<g><path style="opacity:0.899" fill="#4d525c" d="M -0.5,6.5 C -0.5,5.5 -0.5,4.5 -0.5,3.5C 1.37099,3.85883 2.87099,4.85883 4,6.5C 5.83333,4.66667 7.66667,2.83333 9.5,1C 10.4835,0.409207 11.1501,0.74254 11.5,2C 9.54938,5.98019 6.54938,8.31353 2.5,9C 1.62656,7.95501 0.626561,7.12167 -0.5,6.5 Z"/></g>
<g><path style="opacity:0.91" fill="#505560" d="M 23.5,0.5 C 25.2252,0.842542 25.7252,1.84254 25,3.5C 23.1667,5.33333 21.3333,7.16667 19.5,9C 17.0966,9.63024 15.2633,8.79691 14,6.5C 13.2506,5.36495 13.4173,4.36495 14.5,3.5C 15.8139,4.31277 16.9805,5.31277 18,6.5C 20.0396,4.62976 21.8729,2.62976 23.5,0.5 Z"/></g>
<g><path style="opacity:0.933" fill="#595f6a" d="M 39.5,0.5 C 39.5,1.5 39.5,2.5 39.5,3.5C 37.1522,5.68021 34.6522,7.68021 32,9.5C 28.7275,8.45467 27.5608,6.45467 28.5,3.5C 29.8139,4.31277 30.9805,5.31277 32,6.5C 34.1057,3.88229 36.6057,1.88229 39.5,0.5 Z"/></g>
<g><path style="opacity:0.874" fill="#565c67" d="M -0.5,38.5 C -0.5,33.5 -0.5,28.5 -0.5,23.5C 0.833333,22.5 0.833333,21.5 -0.5,20.5C -0.5,18.5 -0.5,16.5 -0.5,14.5C 3.29048,10.5673 7.12382,10.5673 11,14.5C 11.9439,17.3471 11.4439,19.8471 9.5,22C 10.1258,22.7504 10.6258,23.5838 11,24.5C 11.4992,29.1548 11.6658,33.8215 11.5,38.5C 7.5,38.5 3.5,38.5 -0.5,38.5 Z M 3.5,14.5 C 8.15854,14.0146 9.49187,15.848 7.5,20C 2.22092,20.5848 0.887584,18.7514 3.5,14.5 Z M 4.5,23.5 C 6.01739,23.5106 7.18405,24.1772 8,25.5C 8.49834,28.8168 8.66501,32.1501 8.5,35.5C 6.16667,35.5 3.83333,35.5 1.5,35.5C 1.33537,32.4816 1.50204,29.4816 2,26.5C 2.69794,25.3094 3.53128,24.3094 4.5,23.5 Z"/></g>
<g><path style="opacity:0.88" fill="#585e6a" d="M 16.5,11.5 C 24.8038,11.2779 27.1372,14.7779 23.5,22C 24.1258,22.7504 24.6258,23.5838 25,24.5C 25.4992,29.1548 25.6658,33.8215 25.5,38.5C 21.5,38.5 17.5,38.5 13.5,38.5C 13.3342,33.8215 13.5008,29.1548 14,24.5C 14.3742,23.5838 14.8742,22.7504 15.5,22C 12.7113,18.2252 13.0446,14.7252 16.5,11.5 Z M 17.5,14.5 C 22.1585,14.0146 23.4919,15.848 21.5,20C 16.7282,20.8104 15.3948,18.9771 17.5,14.5 Z M 18.5,23.5 C 20.3109,23.572 21.6443,24.4053 22.5,26C 23.3672,29.1052 23.7006,32.2719 23.5,35.5C 20.8333,35.5 18.1667,35.5 15.5,35.5C 14.8857,30.9576 15.8857,26.9576 18.5,23.5 Z"/></g>
<g><path style="opacity:0.874" fill="#565c67" d="M 39.5,14.5 C 39.5,16.5 39.5,18.5 39.5,20.5C 38.1667,21.5 38.1667,22.5 39.5,23.5C 39.5,28.5 39.5,33.5 39.5,38.5C 35.5,38.5 31.5,38.5 27.5,38.5C 27.3342,33.8215 27.5008,29.1548 28,24.5C 29.6149,22.9893 29.6149,21.656 28,20.5C 26.3771,15.3036 28.2105,12.3036 33.5,11.5C 36.1016,11.4672 38.1016,12.4672 39.5,14.5 Z M 31.5,14.5 C 35.0289,13.8894 36.8622,15.2227 37,18.5C 31.6479,21.877 29.8145,20.5437 31.5,14.5 Z M 32.5,23.5 C 34.5816,23.6243 36.0816,24.6243 37,26.5C 37.498,29.4816 37.6646,32.4816 37.5,35.5C 35.1667,35.5 32.8333,35.5 30.5,35.5C 29.9905,31.1869 30.6571,27.1869 32.5,23.5 Z"/></g>
</svg>
