<?xml version="1.0" encoding="UTF-8"?>
<!DOCTYPE svg PUBLIC "-//W3C//DTD SVG 1.1//EN" "http://www.w3.org/Graphics/SVG/1.1/DTD/svg11.dtd">
<svg xmlns="http://www.w3.org/2000/svg" version="1.1" width="128px" height="128px" style="shape-rendering:geometricPrecision; text-rendering:geometricPrecision; image-rendering:optimizeQuality; fill-rule:evenodd; clip-rule:evenodd" xmlns:xlink="http://www.w3.org/1999/xlink">
<g><path style="opacity:1" fill="#8f48ff" d="M 34.5,-0.5 C 65.5,-0.5 96.5,-0.5 127.5,-0.5C 127.5,42.1667 127.5,84.8333 127.5,127.5C 120.833,127.5 114.167,127.5 107.5,127.5C 107.5,126.5 107.5,125.5 107.5,124.5C 118.997,123.168 125.331,116.668 126.5,105C 126.5,100 126.5,95 126.5,90C 125.626,86.6336 124.626,83.3002 123.5,80C 123.833,79.6667 124.167,79.3333 124.5,79C 123.552,78.5172 122.552,78.3505 121.5,78.5C 117.019,63.0627 116.686,47.5627 120.5,32C 119.391,30.187 120.058,29.3537 122.5,29.5C 123.446,25.5663 123.779,21.7329 123.5,18C 121.637,7.47583 115.304,1.80916 104.5,1C 93.1391,0.182826 82.1391,0.682826 71.5,2.5C 71.6463,4.94238 70.813,5.60905 69,4.5C 64.044,6.3679 58.8773,7.8679 53.5,9C 43.1407,8.07208 34.3074,11.5721 27,19.5C 20.7473,30.2121 22.914,39.8788 33.5,48.5C 35.7388,49.7878 38.0721,50.7878 40.5,51.5C 37.7094,62.4617 40.7094,71.4617 49.5,78.5C 45.5967,82.5924 42.93,86.9258 41.5,91.5C 37.0354,93.9016 32.7021,96.5683 28.5,99.5C 28.5,96.8333 28.5,94.1667 28.5,91.5C 29.8734,91.6567 31.2068,91.49 32.5,91C 28.9083,88.9421 28.9083,87.2755 32.5,86C 31.1667,85 29.8333,84 28.5,83C 29.1667,82.6667 29.8333,82.3333 30.5,82C 30.7481,78.4919 30.2481,74.6585 29,70.5C 28.6667,70.8333 28.3333,71.1667 28,71.5C 27.3223,68.7326 25.8223,66.5659 23.5,65C 16.3881,58.7527 10.7215,50.7527 6.5,41C 6.83333,40.6667 7.16667,40.3333 7.5,40C 2.35348,17.1364 11.3535,3.63637 34.5,-0.5 Z"/></g>
<g><path style="opacity:1" fill="#fdfdff" d="M 78.5,39.5 C 88.6751,49.5285 90.1751,60.8618 83,73.5C 80.9373,75.7341 78.7706,77.7341 76.5,79.5C 67.2578,83.7547 58.2578,83.4214 49.5,78.5C 40.7094,71.4617 37.7094,62.4617 40.5,51.5C 42.2829,46.2487 45.2829,41.9154 49.5,38.5C 59.4243,32.8592 69.091,33.1925 78.5,39.5 Z"/></g>
<g><path style="opacity:1" fill="#a547ff" d="M -0.5,-0.5 C 11.1667,-0.5 22.8333,-0.5 34.5,-0.5C 11.3535,3.63637 2.35348,17.1364 7.5,40C 7.16667,40.3333 6.83333,40.6667 6.5,41C 10.7215,50.7527 16.3881,58.7527 23.5,65C 25.8223,66.5659 27.3223,68.7326 28,71.5C 28.3333,71.1667 28.6667,70.8333 29,70.5C 30.2481,74.6585 30.7481,78.4919 30.5,82C 29.8333,82.3333 29.1667,82.6667 28.5,83C 29.8333,84 31.1667,85 32.5,86C 28.9083,87.2755 28.9083,88.9421 32.5,91C 31.2068,91.49 29.8734,91.6567 28.5,91.5C 28.5,94.1667 28.5,96.8333 28.5,99.5C 20.5899,107.105 17.5899,116.439 19.5,127.5C 12.8333,127.5 6.16667,127.5 -0.5,127.5C -0.5,84.8333 -0.5,42.1667 -0.5,-0.5 Z"/></g>
<g><path style="opacity:1" fill="#794aff" d="M 107.5,124.5 C 107.5,122.167 107.5,119.833 107.5,117.5C 111.84,116.748 115.007,114.414 117,110.5C 118.938,104.09 119.271,97.7569 118,91.5C 115.795,88.9598 113.295,86.7932 110.5,85C 110.833,84.6667 111.167,84.3333 111.5,84C 109.567,83.7489 107.734,83.2489 106,82.5C 104.984,83.6341 104.317,83.3008 104,81.5C 103.667,81.8333 103.333,82.1667 103,82.5C 100.347,80.9879 97.6805,80.6545 95,81.5C 92.3333,80.8333 89.6667,80.1667 87,79.5C 83.1343,80.6268 79.6343,80.6268 76.5,79.5C 78.7706,77.7341 80.9373,75.7341 83,73.5C 90.1751,60.8618 88.6751,49.5285 78.5,39.5C 78.678,35.8979 79.678,35.8979 81.5,39.5C 81.8333,38.8333 82.1667,38.1667 82.5,37.5C 84.0876,40.2571 86.421,41.0904 89.5,40C 88.8333,39.6667 88.1667,39.3333 87.5,39C 91.444,38.0105 95.1106,38.5105 98.5,40.5C 100.132,39.7026 101.632,38.7026 103,37.5C 103.95,38.0223 104.784,38.689 105.5,39.5C 106.333,38.5 107.167,37.5 108,36.5C 110.515,37.6745 113.015,37.3412 115.5,35.5C 118.887,27.6316 119.22,19.6316 116.5,11.5C 112.725,8.279 108.391,6.11233 103.5,5C 90.0626,3.32124 77.0626,4.9879 64.5,10C 65.6341,11.016 65.3008,11.6827 63.5,12C 64.3081,12.3076 64.9747,12.8076 65.5,13.5C 64.2713,14.2811 62.938,14.7811 61.5,15C 62.3366,16.0113 62.67,17.1779 62.5,18.5C 57.3915,17.8044 53.8915,19.8044 52,24.5C 50.2213,21.7236 49.2213,22.0569 49,25.5C 48.6667,25.1667 48.3333,24.8333 48,24.5C 47.5348,25.9308 46.7014,27.0975 45.5,28C 45.9312,31.3345 47.2645,34.8345 49.5,38.5C 45.2829,41.9154 42.2829,46.2487 40.5,51.5C 38.0721,50.7878 35.7388,49.7878 33.5,48.5C 22.914,39.8788 20.7473,30.2121 27,19.5C 34.3074,11.5721 43.1407,8.07208 53.5,9C 58.8773,7.8679 64.044,6.3679 69,4.5C 70.813,5.60905 71.6463,4.94238 71.5,2.5C 82.1391,0.682826 93.1391,0.182826 104.5,1C 115.304,1.80916 121.637,7.47583 123.5,18C 123.779,21.7329 123.446,25.5663 122.5,29.5C 120.058,29.3537 119.391,30.187 120.5,32C 116.686,47.5627 117.019,63.0627 121.5,78.5C 122.552,78.3505 123.552,78.5172 124.5,79C 124.167,79.3333 123.833,79.6667 123.5,80C 124.626,83.3002 125.626,86.6336 126.5,90C 126.5,95 126.5,100 126.5,105C 125.331,116.668 118.997,123.168 107.5,124.5 Z"/></g>
<g><path style="opacity:1" fill="#6b4eff" d="M 78.5,39.5 C 69.091,33.1925 59.4243,32.8592 49.5,38.5C 47.2645,34.8345 45.9312,31.3345 45.5,28C 46.7014,27.0975 47.5348,25.9308 48,24.5C 48.3333,24.8333 48.6667,25.1667 49,25.5C 49.2213,22.0569 50.2213,21.7236 52,24.5C 53.8915,19.8044 57.3915,17.8044 62.5,18.5C 62.67,17.1779 62.3366,16.0113 61.5,15C 62.938,14.7811 64.2713,14.2811 65.5,13.5C 64.9747,12.8076 64.3081,12.3076 63.5,12C 65.3008,11.6827 65.6341,11.016 64.5,10C 77.0626,4.9879 90.0626,3.32124 103.5,5C 108.391,6.11233 112.725,8.279 116.5,11.5C 119.22,19.6316 118.887,27.6316 115.5,35.5C 113.015,37.3412 110.515,37.6745 108,36.5C 107.167,37.5 106.333,38.5 105.5,39.5C 104.784,38.689 103.95,38.0223 103,37.5C 101.632,38.7026 100.132,39.7026 98.5,40.5C 95.1106,38.5105 91.444,38.0105 87.5,39C 88.1667,39.3333 88.8333,39.6667 89.5,40C 86.421,41.0904 84.0876,40.2571 82.5,37.5C 82.1667,38.1667 81.8333,38.8333 81.5,39.5C 79.678,35.8979 78.678,35.8979 78.5,39.5 Z"/></g>
<g><path style="opacity:1" fill="#6c57ff" d="M 49.5,78.5 C 58.2578,83.4214 67.2578,83.7547 76.5,79.5C 79.6343,80.6268 83.1343,80.6268 87,79.5C 89.6667,80.1667 92.3333,80.8333 95,81.5C 97.6805,80.6545 100.347,80.9879 103,82.5C 103.333,82.1667 103.667,81.8333 104,81.5C 104.317,83.3008 104.984,83.6341 106,82.5C 107.734,83.2489 109.567,83.7489 111.5,84C 111.167,84.3333 110.833,84.6667 110.5,85C 113.295,86.7932 115.795,88.9598 118,91.5C 119.271,97.7569 118.938,104.09 117,110.5C 115.007,114.414 111.84,116.748 107.5,117.5C 107.097,109.197 103.43,102.697 96.5,98C 82.7822,88.9596 67.7822,85.9596 51.5,89C 48.2321,90.1503 44.8988,90.9836 41.5,91.5C 42.93,86.9258 45.5967,82.5924 49.5,78.5 Z"/></g>
<g><path style="opacity:1" fill="#fefdff" d="M 107.5,117.5 C 107.5,119.833 107.5,122.167 107.5,124.5C 107.5,125.5 107.5,126.5 107.5,127.5C 78.1667,127.5 48.8333,127.5 19.5,127.5C 17.5899,116.439 20.5899,107.105 28.5,99.5C 32.7021,96.5683 37.0354,93.9016 41.5,91.5C 44.8988,90.9836 48.2321,90.1503 51.5,89C 67.7822,85.9596 82.7822,88.9596 96.5,98C 103.43,102.697 107.097,109.197 107.5,117.5 Z"/></g>
</svg>
