<?xml version="1.0" encoding="UTF-8"?>
<!DOCTYPE svg PUBLIC "-//W3C//DTD SVG 1.1//EN" "http://www.w3.org/Graphics/SVG/1.1/DTD/svg11.dtd">
<svg xmlns="http://www.w3.org/2000/svg" version="1.1" width="40px" height="40px" style="shape-rendering:geometricPrecision; text-rendering:geometricPrecision; image-rendering:optimizeQuality; fill-rule:evenodd; clip-rule:evenodd" xmlns:xlink="http://www.w3.org/1999/xlink">
<g><path style="opacity:0.573" fill="#000000" d="M 14.5,-0.5 C 16.1667,-0.5 17.8333,-0.5 19.5,-0.5C 22.6481,3.77438 25.8148,8.10771 29,12.5C 30.5053,14.2983 30.6719,16.1316 29.5,18C 36.7109,20.2484 39.2109,25.0817 37,32.5C 34.0818,37.3782 29.9152,39.0449 24.5,37.5C 23.7025,37.9569 23.3691,38.6236 23.5,39.5C 18.8333,39.5 14.1667,39.5 9.5,39.5C 2.38327,34.327 -0.116735,27.327 2,18.5C 4.74597,11.2499 8.91263,4.91654 14.5,-0.5 Z M 16.5,3.5 C 20.3032,8.14891 23.9699,12.9822 27.5,18C 21.5621,18.4368 18.5621,21.6035 18.5,27.5C 18.4811,30.2057 19.1478,32.7057 20.5,35C 11.6836,36.53 6.35022,32.8633 4.5,24C 7.02418,16.3077 11.0242,9.47434 16.5,3.5 Z M 30.5,23.5 C 28.8333,23.5 27.1667,23.5 25.5,23.5C 27.1667,20.8333 28.8333,20.8333 30.5,23.5 Z M 25.5,23.5 C 25.5323,25.6188 24.5323,26.9522 22.5,27.5C 22.0882,25.0274 23.0882,23.6941 25.5,23.5 Z M 30.5,23.5 C 33.962,25.1927 33.962,26.1927 30.5,26.5C 30.5,25.5 30.5,24.5 30.5,23.5 Z M 22.5,29.5 C 24.5,30.1667 25.8333,31.5 26.5,33.5C 25.8333,31.5 24.5,30.1667 22.5,29.5 Z M 30.5,30.5 C 32.6456,30.6964 32.8122,31.6964 31,33.5C 30.5172,32.552 30.3505,31.552 30.5,30.5 Z"/></g>
</svg>
