<?xml version="1.0" encoding="UTF-8"?>
<!DOCTYPE svg PUBLIC "-//W3C//DTD SVG 1.1//EN" "http://www.w3.org/Graphics/SVG/1.1/DTD/svg11.dtd">
<svg xmlns="http://www.w3.org/2000/svg" version="1.1" width="40px" height="40px" style="shape-rendering:geometricPrecision; text-rendering:geometricPrecision; image-rendering:optimizeQuality; fill-rule:evenodd; clip-rule:evenodd" xmlns:xlink="http://www.w3.org/1999/xlink">
<g><path style="opacity:0.832" fill="#5a606c" d="M 4.5,-0.5 C 5.16667,-0.5 5.83333,-0.5 6.5,-0.5C 6.5,0.833333 6.5,2.16667 6.5,3.5C 8.83333,3.5 11.1667,3.5 13.5,3.5C 13.5,2.16667 13.5,0.833333 13.5,-0.5C 14.1667,-0.5 14.8333,-0.5 15.5,-0.5C 15.5,0.833333 15.5,2.16667 15.5,3.5C 18.1667,3.5 20.8333,3.5 23.5,3.5C 23.5,2.16667 23.5,0.833333 23.5,-0.5C 24.1667,-0.5 24.8333,-0.5 25.5,-0.5C 25.5,0.833333 25.5,2.16667 25.5,3.5C 27.8333,3.5 30.1667,3.5 32.5,3.5C 32.5,2.16667 32.5,0.833333 32.5,-0.5C 33.1667,-0.5 33.8333,-0.5 34.5,-0.5C 34.5,0.833333 34.5,2.16667 34.5,3.5C 36.1667,3.5 37.8333,3.5 39.5,3.5C 39.5,15.5 39.5,27.5 39.5,39.5C 26.1667,39.5 12.8333,39.5 -0.5,39.5C -0.5,27.5 -0.5,15.5 -0.5,3.5C 1.16667,3.5 2.83333,3.5 4.5,3.5C 4.5,2.16667 4.5,0.833333 4.5,-0.5 Z M 0.5,5.5 C 2.49181,5.32846 4.15848,5.99512 5.5,7.5C 8.5,4.83333 11.5,4.83333 14.5,7.5C 17.8333,4.83333 21.1667,4.83333 24.5,7.5C 28.0286,4.70247 31.1952,5.0358 34,8.5C 34.4828,7.55198 34.6495,6.55198 34.5,5.5C 35.8333,5.5 37.1667,5.5 38.5,5.5C 38.5,7.16667 38.5,8.83333 38.5,10.5C 25.8333,10.5 13.1667,10.5 0.5,10.5C 0.5,8.83333 0.5,7.16667 0.5,5.5 Z M 0.5,12.5 C 13.1667,12.5 25.8333,12.5 38.5,12.5C 38.5,21.1667 38.5,29.8333 38.5,38.5C 25.8333,38.5 13.1667,38.5 0.5,38.5C 0.5,29.8333 0.5,21.1667 0.5,12.5 Z"/></g>
<g><path style="opacity:0.354" fill="#3f434c" d="M 3.5,17.5 C 5.92397,17.1924 8.25731,17.5258 10.5,18.5C 9.33333,18.8333 8.16667,19.1667 7,19.5C 5.31887,19.3917 4.1522,18.7251 3.5,17.5 Z"/></g>
<g><path style="opacity:0.354" fill="#3f434c" d="M 28.5,17.5 C 30.924,17.1924 33.2573,17.5258 35.5,18.5C 34.3333,18.8333 33.1667,19.1667 32,19.5C 30.3189,19.3917 29.1522,18.7251 28.5,17.5 Z"/></g>
<g><path style="opacity:0.611" fill="#555b66" d="M 12.5,17.5 C 14.604,17.2011 16.604,17.5344 18.5,18.5C 17.5,18.8333 16.5,19.1667 15.5,19.5C 13.9704,19.3601 12.9704,18.6935 12.5,17.5 Z"/></g>
<g><path style="opacity:0.611" fill="#555b66" d="M 20.5,17.5 C 22.604,17.2011 24.604,17.5344 26.5,18.5C 25.5,18.8333 24.5,19.1667 23.5,19.5C 21.9704,19.3601 20.9704,18.6935 20.5,17.5 Z"/></g>
<g><path style="opacity:0.72" fill="#545a65" d="M 4.5,23.5 C 6.60395,23.2011 8.60395,23.5344 10.5,24.5C 8.23512,25.6474 5.90179,25.8141 3.5,25C 4.05596,24.6174 4.38929,24.1174 4.5,23.5 Z"/></g>
<g><path style="opacity:0.731" fill="#585e69" d="M 12.5,23.5 C 14.604,23.2011 16.604,23.5344 18.5,24.5C 17.5,24.8333 16.5,25.1667 15.5,25.5C 13.9704,25.3601 12.9704,24.6935 12.5,23.5 Z"/></g>
<g><path style="opacity:0.731" fill="#585e69" d="M 20.5,23.5 C 22.604,23.2011 24.604,23.5344 26.5,24.5C 25.5,24.8333 24.5,25.1667 23.5,25.5C 21.9704,25.3601 20.9704,24.6935 20.5,23.5 Z"/></g>
<g><path style="opacity:0.72" fill="#545a65" d="M 28.5,23.5 C 31.0728,23.1485 33.4062,23.6485 35.5,25C 34.3333,25.1667 33.1667,25.3333 32,25.5C 30.3189,25.3917 29.1522,24.7251 28.5,23.5 Z"/></g>
</svg>
