<?xml version="1.0" encoding="UTF-8"?>
<!DOCTYPE svg PUBLIC "-//W3C//DTD SVG 1.1//EN" "http://www.w3.org/Graphics/SVG/1.1/DTD/svg11.dtd">
<svg xmlns="http://www.w3.org/2000/svg" version="1.1" width="40px" height="40px" style="shape-rendering:geometricPrecision; text-rendering:geometricPrecision; image-rendering:optimizeQuality; fill-rule:evenodd; clip-rule:evenodd" xmlns:xlink="http://www.w3.org/1999/xlink">
<g><path style="opacity:0.856" fill="#565c67" d="M 39.5,8.5 C 39.5,15.5 39.5,22.5 39.5,29.5C 35.2315,30.3726 30.8982,30.7059 26.5,30.5C 26.5,29.5 26.5,28.5 26.5,27.5C 30.1667,27.5 33.8333,27.5 37.5,27.5C 37.8082,21.5746 37.4749,15.7412 36.5,10C 24.8381,9.50014 13.1714,9.33347 1.5,9.5C 1.5,15.5 1.5,21.5 1.5,27.5C 5.16667,27.5 8.83333,27.5 12.5,27.5C 12.5,28.5 12.5,29.5 12.5,30.5C 8.06853,30.7693 3.7352,30.436 -0.5,29.5C -0.5,22.5 -0.5,15.5 -0.5,8.5C 12.8333,7.16667 26.1667,7.16667 39.5,8.5 Z M 18.5,20.5 C 22.0749,21.2068 22.2416,22.2068 19,23.5C 17.3167,22.8235 17.1501,21.8235 18.5,20.5 Z"/></g>
<g><path style="opacity:0.474" fill="#444952" d="M 4.5,11.5 C 8.55461,11.1758 12.5546,11.5091 16.5,12.5C 14.5,12.8333 12.5,13.1667 10.5,13.5C 8.04775,13.4609 6.04775,12.7943 4.5,11.5 Z"/></g>
<g><path style="opacity:0.974" fill="#545a65" d="M 22.5,11.5 C 26.7032,11.0761 30.7032,11.5761 34.5,13C 32.5,13.1667 30.5,13.3333 28.5,13.5C 26.0478,13.4609 24.0478,12.7943 22.5,11.5 Z"/></g>
<g><path style="opacity:0.684" fill="#5c636f" d="M 4.5,16.5 C 7.89838,16.1796 11.2317,16.513 14.5,17.5C 12.8333,17.8333 11.1667,18.1667 9.5,18.5C 7.3603,18.4439 5.69363,17.7773 4.5,16.5 Z"/></g>
<g><path style="opacity:0.682" fill="#5d6470" d="M 24.5,16.5 C 27.8984,16.1796 31.2317,16.513 34.5,17.5C 32.8333,17.8333 31.1667,18.1667 29.5,18.5C 27.3603,18.4439 25.6936,17.7773 24.5,16.5 Z"/></g>
<g><path style="opacity:0.845" fill="#545a65" d="M 16.5,27.5 C 15.8333,28.5 15.1667,29.5 14.5,30.5C 14.4693,26.516 15.136,22.6827 16.5,19C 18.5787,18.1923 20.5787,18.359 22.5,19.5C 24.3463,23.4099 24.6796,27.4099 23.5,31.5C 22.5481,29.9547 22.2148,28.288 22.5,26.5C 20.2646,26.2053 18.2646,26.5386 16.5,27.5 Z M 18.5,20.5 C 17.1501,21.8235 17.3167,22.8235 19,23.5C 22.2416,22.2068 22.0749,21.2068 18.5,20.5 Z"/></g>
<g><path style="opacity:0.944" fill="#575c68" d="M 12.5,22.5 C 9.9407,22.8016 7.60737,22.4682 5.5,21.5C 6.4486,20.8476 7.61527,20.5143 9,20.5C 10.6811,20.6083 11.8478,21.2749 12.5,22.5 Z"/></g>
<g><path style="opacity:0.971" fill="#4c515b" d="M 26.5,20.5 C 37.1667,21.5 37.1667,22.5 26.5,23.5C 26.5,22.5 26.5,21.5 26.5,20.5 Z"/></g>
<g><path style="opacity:0.251" fill="#2e3238" d="M 5.5,21.5 C 7.60737,22.4682 9.9407,22.8016 12.5,22.5C 9.97588,23.8003 7.30921,23.8003 4.5,22.5C 4.62358,21.8933 4.95691,21.56 5.5,21.5 Z"/></g>
<g><path style="opacity:0.031" fill="#292c32" d="M 16.5,27.5 C 16.762,28.9778 16.4287,30.3112 15.5,31.5C 14.8933,31.3764 14.56,31.0431 14.5,30.5C 15.1667,29.5 15.8333,28.5 16.5,27.5 Z"/></g>
</svg>
