<?xml version="1.0" encoding="UTF-8"?>
<!DOCTYPE svg PUBLIC "-//W3C//DTD SVG 1.1//EN" "http://www.w3.org/Graphics/SVG/1.1/DTD/svg11.dtd">
<svg xmlns="http://www.w3.org/2000/svg" version="1.1" width="40px" height="40px" style="shape-rendering:geometricPrecision; text-rendering:geometricPrecision; image-rendering:optimizeQuality; fill-rule:evenodd; clip-rule:evenodd" xmlns:xlink="http://www.w3.org/1999/xlink">
<g><path style="opacity:0.901" fill="#6b727f" d="M -0.5,-0.5 C 1.5,-0.5 3.5,-0.5 5.5,-0.5C 9.81231,4.47898 14.479,9.14565 19.5,13.5C 24.521,9.14565 29.1877,4.47898 33.5,-0.5C 35.5,-0.5 37.5,-0.5 39.5,-0.5C 39.5,1.5 39.5,3.5 39.5,5.5C 34.521,9.81231 29.8544,14.479 25.5,19.5C 29.8544,24.521 34.521,29.1877 39.5,33.5C 39.5,35.5 39.5,37.5 39.5,39.5C 37.5,39.5 35.5,39.5 33.5,39.5C 29.1877,34.521 24.521,29.8544 19.5,25.5C 14.479,29.8544 9.81231,34.521 5.5,39.5C 3.5,39.5 1.5,39.5 -0.5,39.5C -0.5,37.5 -0.5,35.5 -0.5,33.5C 4.47898,29.1877 9.14565,24.521 13.5,19.5C 9.14565,14.479 4.47898,9.81231 -0.5,5.5C -0.5,3.5 -0.5,1.5 -0.5,-0.5 Z"/></g>
</svg>
