<?xml version="1.0" encoding="UTF-8"?>
<!DOCTYPE svg PUBLIC "-//W3C//DTD SVG 1.1//EN" "http://www.w3.org/Graphics/SVG/1.1/DTD/svg11.dtd">
<svg xmlns="http://www.w3.org/2000/svg" version="1.1" width="40px" height="40px" style="shape-rendering:geometricPrecision; text-rendering:geometricPrecision; image-rendering:optimizeQuality; fill-rule:evenodd; clip-rule:evenodd" xmlns:xlink="http://www.w3.org/1999/xlink">
<g><path style="opacity:0.647" fill="#000000" d="M 7.5,-0.5 C 8.83333,-0.5 10.1667,-0.5 11.5,-0.5C 11.5,0.5 11.5,1.5 11.5,2.5C 16.5,2.5 21.5,2.5 26.5,2.5C 26.5,1.5 26.5,0.5 26.5,-0.5C 27.8333,-0.5 29.1667,-0.5 30.5,-0.5C 31.0767,2.64485 33.0767,4.14485 36.5,4C 37.1258,4.75044 37.6258,5.58377 38,6.5C 38.6667,16.5 38.6667,26.5 38,36.5C 37.4867,37.5266 36.9867,38.5266 36.5,39.5C 25.1667,39.5 13.8333,39.5 2.5,39.5C 1.83333,38.1667 0.833333,37.1667 -0.5,36.5C -0.5,26.5 -0.5,16.5 -0.5,6.5C 1.26244,4.29951 3.59578,3.13285 6.5,3C 7.33663,1.98873 7.66997,0.822066 7.5,-0.5 Z M 3.5,15.5 C 4.5,15.5 5.5,15.5 6.5,15.5C 6.5,17.8333 6.5,20.1667 6.5,22.5C 8.16667,22.5 9.83333,22.5 11.5,22.5C 11.1924,20.076 11.5258,17.7427 12.5,15.5C 12.5938,17.2388 12.7605,19.2388 13,21.5C 14.6995,22.4061 16.5328,22.7394 18.5,22.5C 18.1924,20.076 18.5258,17.7427 19.5,15.5C 19.3471,17.5001 19.6804,19.6668 20.5,22C 24.5052,21.1829 28.5052,21.3495 32.5,22.5C 32.5,20.1667 32.5,17.8333 32.5,15.5C 33.5,15.5 34.5,15.5 35.5,15.5C 35.713,22.2105 35.3796,28.8772 34.5,35.5C 31.8333,35.5 29.1667,35.5 26.5,35.5C 27.3206,29.8419 25.154,28.1752 20,30.5C 19.0188,36.864 18.5188,36.5306 18.5,29.5C 13.6327,28.5331 11.466,30.5331 12,35.5C 11.5045,33.5273 11.3379,31.5273 11.5,29.5C 9.83333,29.5 8.16667,29.5 6.5,29.5C 6.7989,31.604 6.46557,33.604 5.5,35.5C 4.91395,35.2907 4.41395,34.9574 4,34.5C 3.50046,28.1754 3.33379,21.8421 3.5,15.5 Z"/></g>
<g><path style="opacity:0.759" fill="#000000" d="M 6.5,23.5 C 8.16667,23.5 9.83333,23.5 11.5,23.5C 11.5,25.1667 11.5,26.8333 11.5,28.5C 9.83333,28.5 8.16667,28.5 6.5,28.5C 6.5,26.8333 6.5,25.1667 6.5,23.5 Z"/></g>
<g><path style="opacity:0.612" fill="#000000" d="M 12.5,23.5 C 14.5,23.5 16.5,23.5 18.5,23.5C 18.5,25.1667 18.5,26.8333 18.5,28.5C 16.5,28.5 14.5,28.5 12.5,28.5C 12.5,26.8333 12.5,25.1667 12.5,23.5 Z"/></g>
<g><path style="opacity:0.565" fill="#000000" d="M 19.5,23.5 C 23.8333,23.5 28.1667,23.5 32.5,23.5C 32.5,25.1667 32.5,26.8333 32.5,28.5C 28.1667,28.5 23.8333,28.5 19.5,28.5C 19.5,26.8333 19.5,25.1667 19.5,23.5 Z"/></g>
</svg>
