<?xml version="1.0" encoding="UTF-8"?>
<!DOCTYPE svg PUBLIC "-//W3C//DTD SVG 1.1//EN" "http://www.w3.org/Graphics/SVG/1.1/DTD/svg11.dtd">
<svg xmlns="http://www.w3.org/2000/svg" version="1.1" width="40px" height="40px" style="shape-rendering:geometricPrecision; text-rendering:geometricPrecision; image-rendering:optimizeQuality; fill-rule:evenodd; clip-rule:evenodd" xmlns:xlink="http://www.w3.org/1999/xlink">
<g><path style="opacity:1" fill="#d0cfff" d="M -0.5,-0.5 C 4.5,-0.5 9.5,-0.5 14.5,-0.5C 11.9046,1.01439 10.5713,3.34772 10.5,6.5C 7.5,6.5 4.5,6.5 1.5,6.5C 1.5,7.5 1.5,8.5 1.5,9.5C 13.5,9.5 25.5,9.5 37.5,9.5C 37.5,8.5 37.5,7.5 37.5,6.5C 34.1667,6.5 30.8333,6.5 27.5,6.5C 27.8337,3.50904 26.8337,1.17571 24.5,-0.5C 29.5,-0.5 34.5,-0.5 39.5,-0.5C 39.5,12.8333 39.5,26.1667 39.5,39.5C 35.8333,39.5 32.1667,39.5 28.5,39.5C 31.7882,38.3735 33.9549,36.0402 35,32.5C 35.6667,26.1667 35.6667,19.8333 35,13.5C 34.586,13.0426 34.086,12.7093 33.5,12.5C 32.9325,19.9141 32.0991,27.2474 31,34.5C 30.5,35 30,35.5 29.5,36C 22.8333,36.6667 16.1667,36.6667 9.5,36C 8.66667,35.1667 7.83333,34.3333 7,33.5C 6.50038,26.5079 6.33371,19.5079 6.5,12.5C 5.5,12.5 4.5,12.5 3.5,12.5C 3.33371,19.5079 3.50038,26.5079 4,33.5C 5.33203,35.66 6.83203,37.66 8.5,39.5C 5.5,39.5 2.5,39.5 -0.5,39.5C -0.5,26.1667 -0.5,12.8333 -0.5,-0.5 Z"/></g>
<g><path style="opacity:1" fill="#fcfcff" d="M 14.5,-0.5 C 17.8333,-0.5 21.1667,-0.5 24.5,-0.5C 26.8337,1.17571 27.8337,3.50904 27.5,6.5C 30.8333,6.5 34.1667,6.5 37.5,6.5C 37.5,7.5 37.5,8.5 37.5,9.5C 25.5,9.5 13.5,9.5 1.5,9.5C 1.5,8.5 1.5,7.5 1.5,6.5C 4.5,6.5 7.5,6.5 10.5,6.5C 10.5713,3.34772 11.9046,1.01439 14.5,-0.5 Z"/></g>
<g><path style="opacity:1" fill="#d0cfff" d="M 14.5,2.5 C 17.5184,2.33537 20.5184,2.50204 23.5,3C 24.3366,4.01127 24.67,5.17793 24.5,6.5C 20.8333,6.5 17.1667,6.5 13.5,6.5C 13.4326,5.04125 13.7659,3.70792 14.5,2.5 Z"/></g>
<g><path style="opacity:1" fill="#fafaff" d="M 28.5,39.5 C 21.8333,39.5 15.1667,39.5 8.5,39.5C 6.83203,37.66 5.33203,35.66 4,33.5C 3.50038,26.5079 3.33371,19.5079 3.5,12.5C 4.5,12.5 5.5,12.5 6.5,12.5C 6.33371,19.5079 6.50038,26.5079 7,33.5C 7.83333,34.3333 8.66667,35.1667 9.5,36C 16.1667,36.6667 22.8333,36.6667 29.5,36C 30,35.5 30.5,35 31,34.5C 32.0991,27.2474 32.9325,19.9141 33.5,12.5C 34.086,12.7093 34.586,13.0426 35,13.5C 35.6667,19.8333 35.6667,26.1667 35,32.5C 33.9549,36.0402 31.7882,38.3735 28.5,39.5 Z"/></g>
<g><path style="opacity:1" fill="#fcfcff" d="M 13.5,15.5 C 14.5,15.5 15.5,15.5 16.5,15.5C 16.5,20.5 16.5,25.5 16.5,30.5C 15.5,30.5 14.5,30.5 13.5,30.5C 13.5,25.5 13.5,20.5 13.5,15.5 Z"/></g>
<g><path style="opacity:1" fill="#fefeff" d="M 22.5,15.5 C 23.8086,17.5706 24.4752,20.0706 24.5,23C 24.1667,25.5 23.8333,28 23.5,30.5C 22.5059,25.544 22.1725,20.544 22.5,15.5 Z"/></g>
</svg>
