<?xml version="1.0" encoding="UTF-8"?>
<!DOCTYPE svg PUBLIC "-//W3C//DTD SVG 1.1//EN" "http://www.w3.org/Graphics/SVG/1.1/DTD/svg11.dtd">
<svg xmlns="http://www.w3.org/2000/svg" version="1.1" width="40px" height="40px" style="shape-rendering:geometricPrecision; text-rendering:geometricPrecision; image-rendering:optimizeQuality; fill-rule:evenodd; clip-rule:evenodd" xmlns:xlink="http://www.w3.org/1999/xlink">
<g><path style="opacity:0.603" fill="#fefffe" d="M 29.5,-0.5 C 31.8333,-0.5 34.1667,-0.5 36.5,-0.5C 37.2905,0.40128 38.2905,1.06795 39.5,1.5C 39.5,4.83333 39.5,8.16667 39.5,11.5C 33.7019,16.7971 28.0353,22.2971 22.5,28C 18.2695,29.2899 13.9362,29.7899 9.5,29.5C 9.90216,25.0876 10.7355,20.7543 12,16.5C 17.7699,10.7117 23.6033,5.04499 29.5,-0.5 Z M 31.5,3.5 C 35.2518,3.50072 36.2518,5.16739 34.5,8.5C 32.2275,7.62489 31.2275,5.95822 31.5,3.5 Z M 26.5,9.5 C 28.5069,10.3484 29.6735,11.6817 30,13.5C 26.5,17 23,20.5 19.5,24C 13.899,25.5183 12.899,24.0183 16.5,19.5C 20.1877,16.479 23.5211,13.1456 26.5,9.5 Z"/></g>
<g><path style="opacity:0.627" fill="#fefffe" d="M 34.5,39.5 C 23.5,39.5 12.5,39.5 1.5,39.5C 1.16667,38.5 0.5,37.8333 -0.5,37.5C -0.5,27.1667 -0.5,16.8333 -0.5,6.5C 0.748938,4.8639 2.4156,3.69724 4.5,3C 9.16667,2.33333 13.8333,2.33333 18.5,3C 19.727,4.58738 19.3937,5.92071 17.5,7C 12.9145,7.19713 8.41446,7.69713 4,8.5C 3.18365,17.4117 3.35032,26.245 4.5,35C 12.7296,36.604 21.0629,36.9373 29.5,36C 30.6667,35.5 31.5,34.6667 32,33.5C 32.3333,29.5 32.6667,25.5 33,21.5C 34.3333,20.1667 35.6667,20.1667 37,21.5C 38.2201,27.8664 37.3868,33.8664 34.5,39.5 Z"/></g>
</svg>
