<?xml version="1.0" encoding="UTF-8"?>
<!DOCTYPE svg PUBLIC "-//W3C//DTD SVG 1.1//EN" "http://www.w3.org/Graphics/SVG/1.1/DTD/svg11.dtd">
<svg xmlns="http://www.w3.org/2000/svg" version="1.1" width="40px" height="40px" style="shape-rendering:geometricPrecision; text-rendering:geometricPrecision; image-rendering:optimizeQuality; fill-rule:evenodd; clip-rule:evenodd" xmlns:xlink="http://www.w3.org/1999/xlink">
<g><path style="opacity:0.833" fill="#5a606b" d="M 22.5,-0.5 C 24.1667,-0.5 25.8333,-0.5 27.5,-0.5C 28.7035,1.63449 30.5368,2.96782 33,3.5C 32.7502,11.7877 34.0836,19.7877 37,27.5C 37.6667,29.1667 37.6667,30.8333 37,32.5C 35.0955,33.158 33.5955,34.3247 32.5,36C 26.794,36.047 21.4606,37.2136 16.5,39.5C 14.5,39.5 12.5,39.5 10.5,39.5C 10.5858,38.5041 10.2524,37.6708 9.5,37C 8.23409,36.6905 7.06743,36.1905 6,35.5C 5.66667,30.8333 5.33333,26.1667 5,21.5C 2.54092,16.6699 1.70759,11.6699 2.5,6.5C 4.30308,5.86319 5.63641,4.69652 6.5,3C 12.2374,3.07438 17.5708,1.90771 22.5,-0.5 Z M 8.5,4.5 C 15.8409,4.33368 23.1742,4.50034 30.5,5C 31.8333,14.6667 31.8333,24.3333 30.5,34C 22.8406,34.4997 15.1739,34.6664 7.5,34.5C 7.19256,24.4176 7.5259,14.4176 8.5,4.5 Z M 3.5,8.5 C 4.64911,8.79106 5.31577,9.62439 5.5,11C 5.33333,11.8333 5.16667,12.6667 5,13.5C 4.39233,11.8455 3.89233,10.1789 3.5,8.5 Z M 34.5,26.5 C 34.33,27.8221 34.6634,28.9887 35.5,30C 34.9558,30.7172 34.2891,31.2172 33.5,31.5C 33.2155,29.5853 33.5489,27.9187 34.5,26.5 Z"/></g>
<g><path style="opacity:0.485" fill="#454953" d="M 9.5,6.5 C 16.1998,6.16998 22.8665,6.50331 29.5,7.5C 26.1667,7.83333 22.8333,8.16667 19.5,8.5C 15.7614,8.48638 12.428,7.81972 9.5,6.5 Z"/></g>
<g><path style="opacity:0.363" fill="#454953" d="M 9.5,9.5 C 16.1998,9.16998 22.8665,9.50331 29.5,10.5C 26.1667,10.8333 22.8333,11.1667 19.5,11.5C 15.7614,11.4864 12.428,10.8197 9.5,9.5 Z"/></g>
<g><path style="opacity:0.372" fill="#434851" d="M 28.5,14.5 C 22.1667,14.5 15.8333,14.5 9.5,14.5C 12.428,13.1803 15.7614,12.5136 19.5,12.5C 22.8333,12.8333 26.1667,13.1667 29.5,13.5C 29.3764,14.1067 29.0431,14.44 28.5,14.5 Z"/></g>
<g><path style="opacity:0.186" fill="#3f434c" d="M 9.5,14.5 C 15.8333,14.5 22.1667,14.5 28.5,14.5C 29.3686,16.717 29.702,19.0504 29.5,21.5C 22.8333,21.5 16.1667,21.5 9.5,21.5C 9.5,19.1667 9.5,16.8333 9.5,14.5 Z"/></g>
<g><path style="opacity:0.457" fill="#34393f" d="M 34.5,26.5 C 33.5489,27.9187 33.2155,29.5853 33.5,31.5C 32.3659,29.0336 32.1993,26.367 33,23.5C 33.5133,24.5266 34.0133,25.5266 34.5,26.5 Z"/></g>
<g><path style="opacity:0.881" fill="#505560" d="M 19.5,29.5 C 18.8333,29.8333 18.1667,30.1667 17.5,30.5C 16.5244,29.1851 15.5244,27.8518 14.5,26.5C 15.7757,25.3554 17.109,25.3554 18.5,26.5C 19.8448,25.6533 20.8448,24.4866 21.5,23C 22.635,22.2506 23.635,22.4173 24.5,23.5C 22.8149,25.5707 21.1482,27.5707 19.5,29.5 Z"/></g>
<g><path style="opacity:0.239" fill="#2e3238" d="M 19.5,29.5 C 20.1667,30.1667 20.8333,30.8333 21.5,31.5C 19.1667,31.5 16.8333,31.5 14.5,31.5C 15.209,30.596 16.209,30.2627 17.5,30.5C 18.1667,30.1667 18.8333,29.8333 19.5,29.5 Z"/></g>
<g><path style="opacity:0.243" fill="#424750" d="M 14.5,31.5 C 16.8333,31.5 19.1667,31.5 21.5,31.5C 22.7383,31.81 22.7383,32.31 21.5,33C 20.3333,33.1667 19.1667,33.3333 18,33.5C 16.3189,33.3917 15.1522,32.7251 14.5,31.5 Z"/></g>
</svg>
