<?xml version="1.0" encoding="UTF-8"?>
<!DOCTYPE svg PUBLIC "-//W3C//DTD SVG 1.1//EN" "http://www.w3.org/Graphics/SVG/1.1/DTD/svg11.dtd">
<svg xmlns="http://www.w3.org/2000/svg" version="1.1" width="40px" height="40px" style="shape-rendering:geometricPrecision; text-rendering:geometricPrecision; image-rendering:optimizeQuality; fill-rule:evenodd; clip-rule:evenodd" xmlns:xlink="http://www.w3.org/1999/xlink">
<g><path style="opacity:0.79" fill="#000000" d="M 39.5,7.5 C 39.5,8.5 39.5,9.5 39.5,10.5C 31.16,10.3336 22.8267,10.5003 14.5,11C 13.2708,13.4491 11.2708,14.6158 8.5,14.5C 5.48793,13.0725 2.48793,11.7392 -0.5,10.5C -0.5,9.5 -0.5,8.5 -0.5,7.5C 2.53143,6.00061 5.6981,4.66728 9,3.5C 11.8791,3.0488 13.7125,4.21547 14.5,7C 22.8267,7.49973 31.16,7.6664 39.5,7.5 Z M 7.5,6.5 C 9.91176,6.69408 10.9118,8.02741 10.5,10.5C 7.04643,10.7332 6.04643,9.39986 7.5,6.5 Z"/></g>
<g><path style="opacity:0.687" fill="#000000" d="M 39.5,17.5 C 39.5,18.8333 39.5,20.1667 39.5,21.5C 37.1238,23.1592 34.4571,24.4926 31.5,25.5C 29.3367,25.2547 27.67,24.2547 26.5,22.5C 17.5246,21.5018 8.52461,21.1685 -0.5,21.5C -0.5,20.1667 -0.5,18.8333 -0.5,17.5C 8.52461,17.8315 17.5246,17.4982 26.5,16.5C 27.67,14.7453 29.3367,13.7453 31.5,13.5C 34.4571,14.5074 37.1238,15.8408 39.5,17.5 Z M 30.5,17.5 C 33.8606,18.2032 34.1939,19.5365 31.5,21.5C 29.3576,20.5629 29.0243,19.2296 30.5,17.5 Z"/></g>
<g><path style="opacity:0.799" fill="#000000" d="M 39.5,28.5 C 39.5,29.5 39.5,30.5 39.5,31.5C 33.4908,31.3338 27.4908,31.5005 21.5,32C 17.5,36.6667 13.5,36.6667 9.5,32C 6.18323,31.5017 2.8499,31.335 -0.5,31.5C -0.5,30.5 -0.5,29.5 -0.5,28.5C 4.53845,29.3094 8.87178,28.1427 12.5,25C 15.8926,23.8325 18.5592,24.6658 20.5,27.5C 26.7985,28.4963 33.1318,28.8297 39.5,28.5 Z M 13.5,28.5 C 14.8333,28.5 16.1667,28.5 17.5,28.5C 17.7778,30.3464 17.1112,31.6798 15.5,32.5C 13.8888,31.6798 13.2222,30.3464 13.5,28.5 Z"/></g>
</svg>
