<?xml version="1.0" encoding="UTF-8"?>
<!DOCTYPE svg PUBLIC "-//W3C//DTD SVG 1.1//EN" "http://www.w3.org/Graphics/SVG/1.1/DTD/svg11.dtd">
<svg xmlns="http://www.w3.org/2000/svg" version="1.1" width="40px" height="40px" style="shape-rendering:geometricPrecision; text-rendering:geometricPrecision; image-rendering:optimizeQuality; fill-rule:evenodd; clip-rule:evenodd" xmlns:xlink="http://www.w3.org/1999/xlink">
<g><path style="opacity:0.855" fill="#5d6470" d="M 14.5,5.5 C 15.1667,6.83333 15.8333,8.16667 16.5,9.5C 16.8333,10.1667 17.1667,10.8333 17.5,11.5C 17.5,12.1667 17.1667,12.5 16.5,12.5C 14.8621,11.8411 13.1955,11.1744 11.5,10.5C 10.5713,11.6888 10.238,13.0222 10.5,14.5C 10.7373,15.791 10.404,16.791 9.5,17.5C 8.73465,14.9039 8.40132,12.2372 8.5,9.5C 10.5,9.5 12.5,9.5 14.5,9.5C 14.5,8.5 14.5,7.5 14.5,6.5C 14.5,6.16667 14.5,5.83333 14.5,5.5 Z"/></g>
<g><path style="opacity:0.216" fill="#31353c" d="M 14.5,6.5 C 14.5,7.5 14.5,8.5 14.5,9.5C 12.5,9.5 10.5,9.5 8.5,9.5C 10.6391,8.84187 12.6391,7.84187 14.5,6.5 Z"/></g>
<g><path style="opacity:0.842" fill="#525762" d="M 17.5,-0.5 C 18.5,-0.5 19.5,-0.5 20.5,-0.5C 23.1842,1.87072 24.5175,4.87072 24.5,8.5C 25.9187,9.45115 27.5853,9.78448 29.5,9.5C 29.5,11.1667 29.5,12.8333 29.5,14.5C 28.7092,19.6039 25.7092,21.6039 20.5,20.5C 19.8333,25.8333 19.1667,25.8333 18.5,20.5C 16.1432,20.6633 13.8098,20.4966 11.5,20C 10.6195,19.2917 9.9528,18.4584 9.5,17.5C 10.404,16.791 10.7373,15.791 10.5,14.5C 11.827,17.6571 14.1604,18.8238 17.5,18C 18.7573,15.9235 18.424,14.0902 16.5,12.5C 17.1667,12.5 17.5,12.1667 17.5,11.5C 22.8293,10.3847 23.8293,7.55139 20.5,3C 19.8333,2.33333 19.1667,2.33333 18.5,3C 16.771,4.7889 16.1043,6.95557 16.5,9.5C 15.8333,8.16667 15.1667,6.83333 14.5,5.5C 14.9752,3.21632 15.9752,1.21632 17.5,-0.5 Z M 25.5,10.5 C 26.675,10.281 27.675,10.6143 28.5,11.5C 28.284,16.7195 25.6173,19.0528 20.5,18.5C 20.2148,16.712 20.5481,15.0453 21.5,13.5C 22.9014,12.4793 24.2347,11.4793 25.5,10.5 Z"/></g>
<g><path style="opacity:0.251" fill="#2f3239" d="M 24.5,8.5 C 26.5,8.5 28.5,8.5 30.5,8.5C 30.7947,10.7354 30.4614,12.7354 29.5,14.5C 29.5,12.8333 29.5,11.1667 29.5,9.5C 27.5853,9.78448 25.9187,9.45115 24.5,8.5 Z"/></g>
<g><path style="opacity:0.885" fill="#545964" d="M 27.5,39.5 C 22.1667,39.5 16.8333,39.5 11.5,39.5C 10.828,38.7326 9.9947,38.0659 9,37.5C 8.17105,32.467 8.33772,27.467 9.5,22.5C 16.7006,21.4598 17.0339,22.2932 10.5,25C 16.4458,28.3165 22.4458,28.3165 28.5,25C 26.1955,24.1048 23.8622,23.2715 21.5,22.5C 24.527,21.1432 27.3603,21.4765 30,23.5C 30.6667,28.1667 30.6667,32.8333 30,37.5C 29.0053,38.0659 28.172,38.7326 27.5,39.5 Z M 10.5,29.5 C 10.9169,28.8761 11.5836,28.5427 12.5,28.5C 15.1454,29.1076 17.8121,29.6076 20.5,30C 17.1322,30.5428 13.7989,30.3761 10.5,29.5 Z M 11.5,32.5 C 16.5,32.5 21.5,32.5 26.5,32.5C 21.5132,35.0597 16.5132,35.0597 11.5,32.5 Z M 26.5,35.5 C 27.1667,35.5 27.5,35.8333 27.5,36.5C 23.2201,37.5396 18.8868,37.7062 14.5,37C 18.5483,36.6958 22.5483,36.1958 26.5,35.5 Z"/></g>
<g><path style="opacity:0.037" fill="#24272c" d="M 26.5,35.5 C 27.2506,34.4265 28.2506,34.2599 29.5,35C 28.9558,35.7172 28.2891,36.2172 27.5,36.5C 27.5,35.8333 27.1667,35.5 26.5,35.5 Z"/></g>
</svg>
