<?xml version="1.0" encoding="UTF-8"?>
<!DOCTYPE svg PUBLIC "-//W3C//DTD SVG 1.1//EN" "http://www.w3.org/Graphics/SVG/1.1/DTD/svg11.dtd">
<svg xmlns="http://www.w3.org/2000/svg" version="1.1" width="40px" height="40px" style="shape-rendering:geometricPrecision; text-rendering:geometricPrecision; image-rendering:optimizeQuality; fill-rule:evenodd; clip-rule:evenodd" xmlns:xlink="http://www.w3.org/1999/xlink">
<g><path style="opacity:0.901" fill="#565c68" d="M 17.5,-0.5 C 18.8333,-0.5 20.1667,-0.5 21.5,-0.5C 26.7714,4.26938 31.938,9.26938 37,14.5C 37.4997,22.8267 37.6664,31.16 37.5,39.5C 32.8333,39.5 28.1667,39.5 23.5,39.5C 22.5509,34.2599 22.2175,28.9265 22.5,23.5C 20.5,23.5 18.5,23.5 16.5,23.5C 16.7825,28.9265 16.4491,34.2599 15.5,39.5C 11.1667,39.5 6.83333,39.5 2.5,39.5C 1.36565,31.2452 1.19898,22.9119 2,14.5C 7.06197,9.26938 12.2286,4.26938 17.5,-0.5 Z M 18.5,2.5 C 24.0746,6.56747 29.2413,11.2341 34,16.5C 34.4996,23.1583 34.6663,29.825 34.5,36.5C 31.5,36.5 28.5,36.5 25.5,36.5C 25.5,31.1667 25.5,25.8333 25.5,20.5C 21.5633,20.2065 17.73,20.5399 14,21.5C 13.5007,26.4889 13.3341,31.4889 13.5,36.5C 10.5,36.5 7.5,36.5 4.5,36.5C 4.33375,29.825 4.50042,23.1583 5,16.5C 9.70332,11.9645 14.2033,7.29788 18.5,2.5 Z"/></g>
</svg>
