<?xml version="1.0" encoding="UTF-8"?>
<!DOCTYPE svg PUBLIC "-//W3C//DTD SVG 1.1//EN" "http://www.w3.org/Graphics/SVG/1.1/DTD/svg11.dtd">
<svg xmlns="http://www.w3.org/2000/svg" version="1.1" width="40px" height="40px" style="shape-rendering:geometricPrecision; text-rendering:geometricPrecision; image-rendering:optimizeQuality; fill-rule:evenodd; clip-rule:evenodd" xmlns:xlink="http://www.w3.org/1999/xlink">
<g><path style="opacity:0.933" fill="#565c67" d="M -0.5,-0.5 C 9.16667,-0.5 18.8333,-0.5 28.5,-0.5C 28.5,0.166667 28.5,0.833333 28.5,1.5C 28.5,4.83333 28.5,8.16667 28.5,11.5C 28.1667,12.5 27.5,13.1667 26.5,13.5C 26.5,9.83333 26.5,6.16667 26.5,2.5C 18.1667,2.5 9.83333,2.5 1.5,2.5C 1.5,13.8333 1.5,25.1667 1.5,36.5C 8.50793,36.6663 15.5079,36.4996 22.5,36C 26.1136,33.0558 27.4469,29.2225 26.5,24.5C 28.3878,26.9878 29.0545,29.9878 28.5,33.5C 26.8333,35.5 25.1667,37.5 23.5,39.5C 15.5,39.5 7.5,39.5 -0.5,39.5C -0.5,26.1667 -0.5,12.8333 -0.5,-0.5 Z"/></g>
<g><path style="opacity:0.119" fill="#32363d" d="M 28.5,1.5 C 29.1667,4.16667 29.8333,6.83333 30.5,9.5C 30.1667,10.5 29.5,11.1667 28.5,11.5C 28.5,8.16667 28.5,4.83333 28.5,1.5 Z"/></g>
<g><path style="opacity:0.904" fill="#575d69" d="M 39.5,4.5 C 39.5,5.83333 39.5,7.16667 39.5,8.5C 36.112,12.2486 32.9454,16.2486 30,20.5C 29.8247,25.0195 29.3247,29.3528 28.5,33.5C 29.0545,29.9878 28.3878,26.9878 26.5,24.5C 25.609,25.1098 24.609,25.4431 23.5,25.5C 22.596,24.791 22.2627,23.791 22.5,22.5C 23.5527,19.3929 24.886,16.3929 26.5,13.5C 27.5,13.1667 28.1667,12.5 28.5,11.5C 29.5,11.1667 30.1667,10.5 30.5,9.5C 31.9508,4.66775 34.9508,3.00109 39.5,4.5 Z"/></g>
<g><path style="opacity:0.055" fill="#24272c" d="M 36.5,7.5 C 36.0269,8.90632 35.0269,9.57298 33.5,9.5C 33.9731,8.09368 34.9731,7.42702 36.5,7.5 Z"/></g>
<g><path style="opacity:0.246" fill="#40454e" d="M 3.5,9.5 C 10.1667,9.5 16.8333,9.5 23.5,9.5C 23.5,10.5 23.5,11.5 23.5,12.5C 16.8333,12.5 10.1667,12.5 3.5,12.5C 3.5,11.5 3.5,10.5 3.5,9.5 Z"/></g>
<g><path style="opacity:0.063" fill="#202227" d="M 33.5,11.5 C 33.1667,12.5 32.5,13.1667 31.5,13.5C 31.5,12.1667 32.1667,11.5 33.5,11.5 Z"/></g>
<g><path style="opacity:0.123" fill="#34383e" d="M 23.5,15.5 C 16.7453,14.8771 10.412,15.5437 4.5,17.5C 3.59603,16.791 3.26269,15.791 3.5,14.5C 10.3543,14.176 17.021,14.5093 23.5,15.5 Z"/></g>
<g><path style="opacity:0.071" fill="#191c1f" d="M 30.5,14.5 C 30.573,16.0269 29.9063,17.0269 28.5,17.5C 28.427,15.9731 29.0937,14.9731 30.5,14.5 Z"/></g>
<g><path style="opacity:0.857" fill="#6a727f" d="M 23.5,15.5 C 17.588,17.4563 11.2547,18.1229 4.5,17.5C 10.412,15.5437 16.7453,14.8771 23.5,15.5 Z"/></g>
<g><path style="opacity:0.055" fill="#202227" d="M 27.5,18.5 C 27.5,19.8333 26.8333,20.5 25.5,20.5C 25.8333,19.5 26.5,18.8333 27.5,18.5 Z"/></g>
<g><path style="opacity:0.833" fill="#6a727f" d="M 4.5,20.5 C 9.94428,19.8917 14.9443,20.5583 19.5,22.5C 14.0557,23.1083 9.05572,22.4417 4.5,20.5 Z"/></g>
<g><path style="opacity:0.145" fill="#33373e" d="M 4.5,20.5 C 9.05572,22.4417 14.0557,23.1083 19.5,22.5C 14.3595,23.4881 9.02621,23.8214 3.5,23.5C 3.26269,22.209 3.59603,21.209 4.5,20.5 Z"/></g>
<g><path style="opacity:0.224" fill="#33373e" d="M 19.5,26.5 C 14.0557,25.8917 9.05572,26.5583 4.5,28.5C 3.59603,27.791 3.26269,26.791 3.5,25.5C 9.02621,25.1786 14.3595,25.5119 19.5,26.5 Z"/></g>
<g><path style="opacity:0.086" fill="#212328" d="M 22.5,22.5 C 22.2627,23.791 22.596,24.791 23.5,25.5C 22.528,26.7514 21.8614,26.418 21.5,24.5C 21.5427,23.5836 21.8761,22.9169 22.5,22.5 Z"/></g>
<g><path style="opacity:0.794" fill="#6a727f" d="M 19.5,26.5 C 14.9443,28.4417 9.94428,29.1083 4.5,28.5C 9.05572,26.5583 14.0557,25.8917 19.5,26.5 Z"/></g>
</svg>
