<?xml version="1.0" encoding="UTF-8"?>
<!DOCTYPE svg PUBLIC "-//W3C//DTD SVG 1.1//EN" "http://www.w3.org/Graphics/SVG/1.1/DTD/svg11.dtd">
<svg xmlns="http://www.w3.org/2000/svg" version="1.1" width="40px" height="40px" style="shape-rendering:geometricPrecision; text-rendering:geometricPrecision; image-rendering:optimizeQuality; fill-rule:evenodd; clip-rule:evenodd" xmlns:xlink="http://www.w3.org/1999/xlink">
<g><path style="opacity:0.908" fill="#595f6a" d="M -0.5,25.5 C -0.5,21.5 -0.5,17.5 -0.5,13.5C 5.40144,1.03109 14.7348,-2.46891 27.5,3C 26.737,3.94353 25.737,4.44353 24.5,4.5C 11.7302,1.61094 4.39691,6.61094 2.5,19.5C 4.81322,32.0834 12.3132,37.0834 25,34.5C 27.2414,34.6801 27.7414,35.5135 26.5,37C 14.1164,40.8024 5.11645,36.969 -0.5,25.5 Z"/></g>
<g><path style="opacity:0.935" fill="#5d6470" d="M 39.5,18.5 C 39.5,19.5 39.5,20.5 39.5,21.5C 36.3338,23.8337 33.6671,26.6671 31.5,30C 30.2068,30.49 28.8734,30.6567 27.5,30.5C 28.4698,27.3389 30.1365,24.5056 32.5,22C 27.1667,21.6667 21.8333,21.3333 16.5,21C 15.2264,20.0228 15.2264,19.1894 16.5,18.5C 22.2055,18.8288 27.8722,18.4954 33.5,17.5C 33.3764,16.8933 33.0431,16.56 32.5,16.5C 31.017,14.9062 29.517,13.2395 28,11.5C 27.2172,9.68148 27.7172,8.34815 29.5,7.5C 33.0742,11.0094 36.4076,14.6761 39.5,18.5 Z"/></g>
<g><path style="opacity:0.353" fill="#34393f" d="M 32.5,16.5 C 33.0431,16.56 33.3764,16.8933 33.5,17.5C 27.8722,18.4954 22.2055,18.8288 16.5,18.5C 21.8333,17.8333 27.1667,17.1667 32.5,16.5 Z"/></g>
</svg>
