<?xml version="1.0" encoding="UTF-8"?>
<!DOCTYPE svg PUBLIC "-//W3C//DTD SVG 1.1//EN" "http://www.w3.org/Graphics/SVG/1.1/DTD/svg11.dtd">
<svg xmlns="http://www.w3.org/2000/svg" version="1.1" width="200px" height="200px" style="shape-rendering:geometricPrecision; text-rendering:geometricPrecision; image-rendering:optimizeQuality; fill-rule:evenodd; clip-rule:evenodd" xmlns:xlink="http://www.w3.org/1999/xlink">
<g><path style="opacity:0.992" fill="#47628e" d="M 133.5,-0.5 C 135.5,-0.5 137.5,-0.5 139.5,-0.5C 138.797,1.71572 137.464,3.54905 135.5,5C 131.097,8.51907 126.763,12.0191 122.5,15.5C 109.046,25.7418 95.7122,36.2418 82.5,47C 65.3387,50.0489 48.3387,53.2156 31.5,56.5C 27.6061,57.5934 23.6061,58.2601 19.5,58.5C 19.2347,69.5383 19.568,80.5383 20.5,91.5C 18.8333,91.5 17.1667,91.5 15.5,91.5C 15.016,80.8364 14.516,70.1697 14,59.5C 6.91999,61.1012 6.08665,59.6012 11.5,55C 29.784,41.7172 47.784,28.0505 65.5,14C 88.3036,9.20757 110.97,4.37423 133.5,-0.5 Z"/></g>
<g><path style="opacity:0.998" fill="#ea537b" d="M 122.5,15.5 C 128.169,28.1711 133.836,40.8378 139.5,53.5C 128.5,64.1667 117.5,74.8333 106.5,85.5C 104.704,86.7927 103.037,88.2927 101.5,90C 83.8032,91.775 66.1365,93.6083 48.5,95.5C 42.5547,82.6106 36.8881,69.6106 31.5,56.5C 48.3387,53.2156 65.3387,50.0489 82.5,47C 95.7122,36.2418 109.046,25.7418 122.5,15.5 Z"/></g>
<g><path style="opacity:0.998" fill="#b7d6f0" d="M 139.5,53.5 C 174.923,66.3175 192.59,91.6508 192.5,129.5C 190.143,129.663 187.81,129.497 185.5,129C 176.433,125.255 167.1,122.422 157.5,120.5C 153.808,120.596 150.642,121.929 148,124.5C 148.078,130.082 149.411,135.416 152,140.5C 153.696,147.907 151.863,154.24 146.5,159.5C 139.033,163.988 132.199,169.321 126,175.5C 124.077,178.544 123.244,181.877 123.5,185.5C 123.848,190.223 124.515,194.889 125.5,199.5C 119.167,199.5 112.833,199.5 106.5,199.5C 94.515,197.346 83.515,192.679 73.5,185.5C 75.7488,181.402 78.2488,177.402 81,173.5C 81.8684,169.328 80.3684,166.162 76.5,164C 67.641,160.474 61.4743,154.308 58,145.5C 56.0516,138.135 57.8849,131.968 63.5,127C 69.7601,125.188 76.0935,123.522 82.5,122C 86.4709,116.774 89.3043,110.94 91,104.5C 92.1667,103.333 93.3333,102.167 94.5,101C 100.5,100.667 106.5,100.333 112.5,100C 115.864,98.9013 119.03,97.4013 122,95.5C 122.798,93.7412 122.631,92.0745 121.5,90.5C 116.573,88.5324 111.573,86.8657 106.5,85.5C 117.5,74.8333 128.5,64.1667 139.5,53.5 Z"/></g>
<g><path style="opacity:1" fill="#fcfdfe" d="M 160.5,75.5 C 171.335,76.6671 177.669,82.6671 179.5,93.5C 179.662,98.5044 177.329,100.338 172.5,99C 164.588,95.259 159.922,89.0924 158.5,80.5C 158.437,78.4861 159.103,76.8194 160.5,75.5 Z"/></g>
<g><path style="opacity:0.998" fill="#6ec098" d="M 106.5,85.5 C 111.573,86.8657 116.573,88.5324 121.5,90.5C 122.631,92.0745 122.798,93.7412 122,95.5C 119.03,97.4013 115.864,98.9013 112.5,100C 106.5,100.333 100.5,100.667 94.5,101C 93.3333,102.167 92.1667,103.333 91,104.5C 89.3043,110.94 86.4709,116.774 82.5,122C 76.0935,123.522 69.7601,125.188 63.5,127C 57.8849,131.968 56.0516,138.135 58,145.5C 61.4743,154.308 67.641,160.474 76.5,164C 80.3684,166.162 81.8684,169.328 81,173.5C 78.2488,177.402 75.7488,181.402 73.5,185.5C 53.4411,170.386 43.1078,150.053 42.5,124.5C 42.7655,114.443 44.7655,104.777 48.5,95.5C 66.1365,93.6083 83.8032,91.775 101.5,90C 103.037,88.2927 104.704,86.7927 106.5,85.5 Z"/></g>
<g><path style="opacity:0.975" fill="#d54e6f" d="M 15.5,91.5 C 17.1667,91.5 18.8333,91.5 20.5,91.5C 24.3928,94.7522 24.3928,98.0855 20.5,101.5C 18.4352,101.483 16.4352,101.15 14.5,100.5C 11.5764,97.1225 11.9097,94.1225 15.5,91.5 Z"/></g>
<g><path style="opacity:0.98" fill="#edd34a" d="M 14.5,100.5 C 16.4352,101.15 18.4352,101.483 20.5,101.5C 24.205,107.372 26.8717,113.372 28.5,119.5C 21.3134,119.825 14.3134,119.491 7.5,118.5C 9.83471,112.495 12.168,106.495 14.5,100.5 Z"/></g>
<g><path style="opacity:0.229" fill="#746624" d="M 7.5,118.5 C 14.3134,119.491 21.3134,119.825 28.5,119.5C 21.3231,120.819 13.9898,120.819 6.5,119.5C 6.62358,118.893 6.95691,118.56 7.5,118.5 Z"/></g>
<g><path style="opacity:1" fill="#6dc098" d="M 192.5,129.5 C 187.599,167.398 166.599,190.731 129.5,199.5C 128.167,199.5 126.833,199.5 125.5,199.5C 124.515,194.889 123.848,190.223 123.5,185.5C 123.244,181.877 124.077,178.544 126,175.5C 132.199,169.321 139.033,163.988 146.5,159.5C 151.863,154.24 153.696,147.907 152,140.5C 149.411,135.416 148.078,130.082 148,124.5C 150.642,121.929 153.808,120.596 157.5,120.5C 167.1,122.422 176.433,125.255 185.5,129C 187.81,129.497 190.143,129.663 192.5,129.5 Z"/></g>
</svg>
