<?xml version="1.0" encoding="UTF-8"?>
<!DOCTYPE svg PUBLIC "-//W3C//DTD SVG 1.1//EN" "http://www.w3.org/Graphics/SVG/1.1/DTD/svg11.dtd">
<svg xmlns="http://www.w3.org/2000/svg" version="1.1" width="40px" height="40px" style="shape-rendering:geometricPrecision; text-rendering:geometricPrecision; image-rendering:optimizeQuality; fill-rule:evenodd; clip-rule:evenodd" xmlns:xlink="http://www.w3.org/1999/xlink">
<g><path style="opacity:0.818" fill="#000000" d="M 39.5,7.5 C 39.5,15.1667 39.5,22.8333 39.5,30.5C 33.0712,31.794 26.4046,32.4607 19.5,32.5C 13.1667,32.3333 6.83333,32.1667 0.5,32C 1.7119,30.8932 1.37857,30.3932 -0.5,30.5C -0.5,22.8333 -0.5,15.1667 -0.5,7.5C 12.8333,6.16667 26.1667,6.16667 39.5,7.5 Z M 13.5,18.5 C 14.2891,18.7828 14.9558,19.2828 15.5,20C 14.184,20.5281 13.5173,20.0281 13.5,18.5 Z M 24.5,18.5 C 25.7733,19.0768 25.7733,19.7435 24.5,20.5C 23.537,20.0302 23.537,19.3635 24.5,18.5 Z"/></g>
</svg>
