<?xml version="1.0" encoding="UTF-8"?>
<!DOCTYPE svg PUBLIC "-//W3C//DTD SVG 1.1//EN" "http://www.w3.org/Graphics/SVG/1.1/DTD/svg11.dtd">
<svg xmlns="http://www.w3.org/2000/svg" version="1.1" width="200px" height="200px" style="shape-rendering:geometricPrecision; text-rendering:geometricPrecision; image-rendering:optimizeQuality; fill-rule:evenodd; clip-rule:evenodd" xmlns:xlink="http://www.w3.org/1999/xlink">
<g><path style="opacity:0.989" fill="#bde4f3" d="M 35.5,-0.5 C 40.1667,-0.5 44.8333,-0.5 49.5,-0.5C 60.8813,4.92885 65.3813,13.9288 63,26.5C 59.4612,35.8568 52.6279,40.8568 42.5,41.5C 26.8057,39.2985 19.9724,30.2985 22,14.5C 24.2632,7.40736 28.7632,2.40736 35.5,-0.5 Z"/></g>
<g><path style="opacity:0.991" fill="#f2db78" d="M 134.5,-0.5 C 139.167,-0.5 143.833,-0.5 148.5,-0.5C 160.249,5.33186 164.749,14.6652 162,27.5C 154.546,41.2063 143.713,44.7063 129.5,38C 118.293,27.272 117.627,15.9387 127.5,4C 129.898,2.47576 132.231,0.97576 134.5,-0.5 Z"/></g>
<g><path style="opacity:0.99" fill="#bee6f4" d="M 63.5,120.5 C 63.8329,102.155 63.4996,83.8212 62.5,65.5C 61.5001,107.828 61.1667,150.161 61.5,192.5C 61.8504,195.453 60.8504,197.787 58.5,199.5C 54.8333,199.5 51.1667,199.5 47.5,199.5C 45.8564,198.684 44.6897,197.35 44,195.5C 43.6667,172.167 43.3333,148.833 43,125.5C 42.6667,148.167 42.3333,170.833 42,193.5C 41.4363,195.887 40.2696,197.887 38.5,199.5C 34.8333,199.5 31.1667,199.5 27.5,199.5C 26.1986,198.36 25.0319,197.027 24,195.5C 23.6667,152.167 23.3333,108.833 23,65.5C 22.6667,84.1667 22.3333,102.833 22,121.5C 18.178,127.746 13.8447,128.079 9,122.5C 8.33333,99.5 8.33333,76.5 9,53.5C 10.5981,48.9014 13.7647,46.0681 18.5,45C 34.8333,44.3333 51.1667,44.3333 67.5,45C 70.5616,46.0608 73.0616,47.8941 75,50.5C 76.6367,74.4369 76.9701,98.4369 76,122.5C 73.3689,126.629 69.8689,127.462 65.5,125C 63.9632,123.89 63.2965,122.39 63.5,120.5 Z"/></g>
<g><path style="opacity:0.989" fill="#f3dc78" d="M 155.5,199.5 C 152.833,199.5 150.167,199.5 147.5,199.5C 146.542,198.038 145.376,196.705 144,195.5C 143.5,175.169 143.333,154.836 143.5,134.5C 142.5,134.5 141.5,134.5 140.5,134.5C 140.667,154.169 140.5,173.836 140,193.5C 139.401,196.254 137.901,198.254 135.5,199.5C 132.833,199.5 130.167,199.5 127.5,199.5C 126.164,197.99 124.997,196.323 124,194.5C 123.5,174.503 123.333,154.503 123.5,134.5C 117.824,134.666 112.157,134.499 106.5,134C 106.043,133.586 105.709,133.086 105.5,132.5C 111.487,113.552 117.321,94.552 123,75.5C 123.667,73.8333 123.667,72.1667 123,70.5C 116.951,84.6411 111.284,98.9744 106,113.5C 99.7925,116.98 95.6258,115.314 93.5,108.5C 100.036,89.3913 106.87,70.3913 114,51.5C 116.365,48.1309 119.532,45.9643 123.5,45C 129.5,44.8333 135.5,44.6667 141.5,44.5C 148.576,44.3896 155.576,44.8896 162.5,46C 167.813,48.9924 171.313,53.4924 173,59.5C 178.136,74.5758 183.47,89.5758 189,104.5C 190.856,110.464 188.856,114.131 183,115.5C 180.594,115.297 178.594,114.297 177,112.5C 171.667,98.5 166.333,84.5 161,70.5C 160.308,71.0253 159.808,71.6919 159.5,72.5C 166.128,93.0148 172.128,113.681 177.5,134.5C 171.5,134.5 165.5,134.5 159.5,134.5C 159.667,154.836 159.5,175.169 159,195.5C 158.31,197.35 157.144,198.684 155.5,199.5 Z"/></g>
<g><path style="opacity:0.042" fill="#60747c" d="M 63.5,120.5 C 62.8333,144.5 62.1667,168.5 61.5,192.5C 61.1667,150.161 61.5001,107.828 62.5,65.5C 63.4996,83.8212 63.8329,102.155 63.5,120.5 Z"/></g>
</svg>
