<?xml version="1.0" encoding="UTF-8"?>
<!DOCTYPE svg PUBLIC "-//W3C//DTD SVG 1.1//EN" "http://www.w3.org/Graphics/SVG/1.1/DTD/svg11.dtd">
<svg xmlns="http://www.w3.org/2000/svg" version="1.1" width="40px" height="40px" style="shape-rendering:geometricPrecision; text-rendering:geometricPrecision; image-rendering:optimizeQuality; fill-rule:evenodd; clip-rule:evenodd" xmlns:xlink="http://www.w3.org/1999/xlink">
<g><path style="opacity:0.904" fill="#535863" d="M 39.5,14.5 C 39.5,17.8333 39.5,21.1667 39.5,24.5C 33.1176,36.1908 23.4509,39.8574 10.5,35.5C 6.98246,38.0003 3.64913,38.0003 0.5,35.5C 4.09676,31.9448 3.76343,28.6115 -0.5,25.5C -0.5,21.8333 -0.5,18.1667 -0.5,14.5C 7.83858,0.79005 19.1719,-2.04328 33.5,6C 35.9024,8.67129 37.9024,11.5046 39.5,14.5 Z M 6.5,33.5 C 5.0048,29.123 3.67147,24.623 2.5,20C 4.58312,8.43569 11.5831,3.43569 23.5,5C 33.2863,7.44152 37.4529,13.6082 36,23.5C 32.8317,30.5109 27.3317,34.1775 19.5,34.5C 16.4102,34.2481 13.4102,33.5814 10.5,32.5C 9.15082,32.8457 7.81748,33.179 6.5,33.5 Z"/></g>
<g><path style="opacity:0.904" fill="#525863" d="M 10.5,16.5 C 14.4735,18.4603 14.4735,20.4603 10.5,22.5C 7.83859,20.5138 7.83859,18.5138 10.5,16.5 Z"/></g>
<g><path style="opacity:0.99" fill="#4f555f" d="M 18.5,16.5 C 23.1972,17.8743 23.5305,19.8743 19.5,22.5C 16.025,20.9158 15.6917,18.9158 18.5,16.5 Z"/></g>
<g><path style="opacity:0.907" fill="#525762" d="M 27.5,16.5 C 30.9598,18.0615 31.2931,20.0615 28.5,22.5C 25.025,20.9158 24.6917,18.9158 27.5,16.5 Z"/></g>
</svg>
