<?xml version="1.0" encoding="UTF-8"?>
<!DOCTYPE svg PUBLIC "-//W3C//DTD SVG 1.1//EN" "http://www.w3.org/Graphics/SVG/1.1/DTD/svg11.dtd">
<svg xmlns="http://www.w3.org/2000/svg" version="1.1" width="40px" height="40px" style="shape-rendering:geometricPrecision; text-rendering:geometricPrecision; image-rendering:optimizeQuality; fill-rule:evenodd; clip-rule:evenodd" xmlns:xlink="http://www.w3.org/1999/xlink">
<g><path style="opacity:0.924" fill="#5a606c" d="M 10.5,-0.5 C 13.1667,-0.5 15.8333,-0.5 18.5,-0.5C 21.8502,2.31118 23.3502,5.97785 23,10.5C 32.5472,8.21138 35.3806,11.5447 31.5,20.5C 33.1965,21.3636 34.3632,22.6969 35,24.5C 35.4993,29.4889 35.6659,34.4889 35.5,39.5C 24.8333,39.5 14.1667,39.5 3.5,39.5C 3.33379,33.1579 3.50046,26.8246 4,20.5C 5.4578,18.04 7.29113,15.8734 9.5,14C 5.28454,8.71951 5.61787,3.88618 10.5,-0.5 Z M 13.5,1.5 C 18.8245,2.33048 20.6578,5.33048 19,10.5C 14.2979,13.7071 11.1312,12.7071 9.5,7.5C 9.66952,4.67361 11.0029,2.67361 13.5,1.5 Z M 26.5,11.5 C 30.2635,12.385 31.2635,14.5516 29.5,18C 23.17,18.1755 22.17,16.0089 26.5,11.5 Z M 11.5,16.5 C 15.1916,15.9712 18.3583,16.9712 21,19.5C 21.4175,21.788 20.7509,23.788 19,25.5C 18.5012,29.4862 18.3345,33.4862 18.5,37.5C 14.1667,37.5 9.83333,37.5 5.5,37.5C 5.14931,31.7383 5.64931,26.0716 7,20.5C 8.39683,18.9297 9.89683,17.5964 11.5,16.5 Z M 25.5,22.5 C 28.0991,22.5494 30.2658,23.5494 32,25.5C 33.3537,29.3628 33.8537,33.3628 33.5,37.5C 29.5,37.5 25.5,37.5 21.5,37.5C 21.3347,33.8183 21.5014,30.1516 22,26.5C 22.6897,24.6498 23.8564,23.3164 25.5,22.5 Z"/></g>
<g><path style="opacity:0.125" fill="#2d3036" d="M 19.5,13.5 C 19.8333,14.8333 20.1667,14.8333 20.5,13.5C 20.8333,13.5 21.1667,13.5 21.5,13.5C 21.0517,15.4646 20.0517,15.7979 18.5,14.5C 18.6236,13.8933 18.9569,13.56 19.5,13.5 Z"/></g>
</svg>
