<?xml version="1.0" encoding="UTF-8"?>
<!DOCTYPE svg PUBLIC "-//W3C//DTD SVG 1.1//EN" "http://www.w3.org/Graphics/SVG/1.1/DTD/svg11.dtd">
<svg xmlns="http://www.w3.org/2000/svg" version="1.1" width="40px" height="40px" style="shape-rendering:geometricPrecision; text-rendering:geometricPrecision; image-rendering:optimizeQuality; fill-rule:evenodd; clip-rule:evenodd" xmlns:xlink="http://www.w3.org/1999/xlink">
<g><path style="opacity:0.915" fill="#000000" d="M 3.5,-0.5 C 5.83333,-0.5 8.16667,-0.5 10.5,-0.5C 11.3063,3.69492 12.3063,7.86159 13.5,12C 11.8253,13.5019 10.1587,15.0019 8.5,16.5C 11.7067,23.7134 17.0401,28.38 24.5,30.5C 24.2907,28.2856 25.124,26.619 27,25.5C 31.1234,26.7393 35.2901,27.7393 39.5,28.5C 39.5,30.8333 39.5,33.1667 39.5,35.5C 37.8333,36.5 36.5,37.8333 35.5,39.5C 31.8333,39.5 28.1667,39.5 24.5,39.5C 11.8333,35.5 3.5,27.1667 -0.5,14.5C -0.5,10.8333 -0.5,7.16667 -0.5,3.5C 1.16667,2.5 2.5,1.16667 3.5,-0.5 Z"/></g>
</svg>
