<?xml version="1.0" encoding="UTF-8"?>
<!DOCTYPE svg PUBLIC "-//W3C//DTD SVG 1.1//EN" "http://www.w3.org/Graphics/SVG/1.1/DTD/svg11.dtd">
<svg xmlns="http://www.w3.org/2000/svg" version="1.1" width="40px" height="40px" style="shape-rendering:geometricPrecision; text-rendering:geometricPrecision; image-rendering:optimizeQuality; fill-rule:evenodd; clip-rule:evenodd" xmlns:xlink="http://www.w3.org/1999/xlink">
<g><path style="opacity:0.917" fill="#555b66" d="M 12.5,-0.5 C 17.1667,-0.5 21.8333,-0.5 26.5,-0.5C 32.9232,2.25553 37.2566,6.9222 39.5,13.5C 39.5,17.5 39.5,21.5 39.5,25.5C 36.8333,32.1667 32.1667,36.8333 25.5,39.5C 21.5,39.5 17.5,39.5 13.5,39.5C 6.59639,37.0522 1.92973,32.3856 -0.5,25.5C -0.5,21.1667 -0.5,16.8333 -0.5,12.5C 0.97576,10.2314 2.47576,7.89805 4,5.5C 6.73612,3.24806 9.56945,1.24806 12.5,-0.5 Z M 17.5,1.5 C 28.8964,2.22916 35.5631,8.22916 37.5,19.5C 37.0559,23.6216 35.5559,27.2882 33,30.5C 32.0898,25.255 29.2565,21.4217 24.5,19C 28.2237,10.7252 25.557,6.72518 16.5,7C 12.0517,10.3562 11.3851,14.3562 14.5,19C 9.74351,21.4217 6.91017,25.255 6,30.5C -1.32145,16.4697 2.51189,6.80306 17.5,1.5 Z M 17.5,9.5 C 22.7083,9.36903 24.3749,11.7024 22.5,16.5C 15.6987,17.9031 14.032,15.5698 17.5,9.5 Z M 18.5,20.5 C 26.992,21.6395 30.3254,26.3062 28.5,34.5C 22.5,38.5 16.5,38.5 10.5,34.5C 8.52334,27.1498 11.19,22.4832 18.5,20.5 Z"/></g>
</svg>
