<?xml version="1.0" encoding="UTF-8"?>
<!DOCTYPE svg PUBLIC "-//W3C//DTD SVG 1.1//EN" "http://www.w3.org/Graphics/SVG/1.1/DTD/svg11.dtd">
<svg xmlns="http://www.w3.org/2000/svg" version="1.1" width="40px" height="40px" style="shape-rendering:geometricPrecision; text-rendering:geometricPrecision; image-rendering:optimizeQuality; fill-rule:evenodd; clip-rule:evenodd" xmlns:xlink="http://www.w3.org/1999/xlink">
<g><path style="opacity:1" fill="#fafafa" d="M -0.5,-0.5 C 4.5,-0.5 9.5,-0.5 14.5,-0.5C 7.16667,2.16667 2.16667,7.16667 -0.5,14.5C -0.5,9.5 -0.5,4.5 -0.5,-0.5 Z"/></g>
<g><path style="opacity:1" fill="#f9f9f9" d="M 23.5,-0.5 C 28.8333,-0.5 34.1667,-0.5 39.5,-0.5C 39.5,4.5 39.5,9.5 39.5,14.5C 36.7384,6.73787 31.4051,1.73787 23.5,-0.5 Z"/></g>
<g><path style="opacity:1" fill="#868c97" d="M 14.5,-0.5 C 17.5,-0.5 20.5,-0.5 23.5,-0.5C 31.4051,1.73787 36.7384,6.73787 39.5,14.5C 39.5,17.5 39.5,20.5 39.5,23.5C 37.1667,31.8333 31.8333,37.1667 23.5,39.5C 20.5,39.5 17.5,39.5 14.5,39.5C 6.73787,36.7384 1.73787,31.4051 -0.5,23.5C -0.5,20.5 -0.5,17.5 -0.5,14.5C 2.16667,7.16667 7.16667,2.16667 14.5,-0.5 Z"/></g>
<g><path style="opacity:1" fill="#fafafa" d="M 13.5,1.5 C 24.4328,-0.450694 32.2662,3.54931 37,13.5C 39.4472,24.4385 35.6139,32.2718 25.5,37C 14.5615,39.4472 6.72819,35.6139 2,25.5C -0.315186,14.4658 3.51815,6.46582 13.5,1.5 Z"/></g>
<g><path style="opacity:1" fill="#b1b4bc" d="M 27.5,11.5 C 26.6618,11.8417 26.3284,12.5084 26.5,13.5C 25.2241,12.6136 25.2241,11.6136 26.5,10.5C 27.1067,10.6236 27.44,10.9569 27.5,11.5 Z"/></g>
<g><path style="opacity:1" fill="#838994" d="M 27.5,11.5 C 28.7175,12.1614 30.0508,12.8281 31.5,13.5C 30.1369,14.8928 29.3036,16.5595 29,18.5C 27.8289,17.1068 26.3289,16.2735 24.5,16C 25.3805,15.2917 26.0472,14.4584 26.5,13.5C 26.3284,12.5084 26.6618,11.8417 27.5,11.5 Z"/></g>
<g><path style="opacity:1" fill="#858b96" d="M 12.5,10.5 C 16.1512,13.0556 19.8179,15.7222 23.5,18.5C 23.2907,19.086 22.9574,19.586 22.5,20C 24.5628,21.5716 25.2294,23.405 24.5,25.5C 22.2428,21.1845 19.2428,20.5178 15.5,23.5C 14.6922,25.4233 14.1922,27.4233 14,29.5C 13.3257,27.4835 12.1591,25.8168 10.5,24.5C 11.2266,19.839 11.8933,15.1723 12.5,10.5 Z"/></g>
<g><path style="opacity:1" fill="#f0f0f2" d="M 13.5,13.5 C 16.0692,14.3956 18.0692,16.0623 19.5,18.5C 18.0606,20.5531 16.0606,21.5531 13.5,21.5C 13.5,18.8333 13.5,16.1667 13.5,13.5 Z"/></g>
<g><path style="opacity:1" fill="#f9f9f9" d="M -0.5,23.5 C 1.73787,31.4051 6.73787,36.7384 14.5,39.5C 9.5,39.5 4.5,39.5 -0.5,39.5C -0.5,34.1667 -0.5,28.8333 -0.5,23.5 Z"/></g>
<g><path style="opacity:1" fill="#f7f8f8" d="M 39.5,23.5 C 39.5,28.8333 39.5,34.1667 39.5,39.5C 34.1667,39.5 28.8333,39.5 23.5,39.5C 31.8333,37.1667 37.1667,31.8333 39.5,23.5 Z"/></g>
</svg>
