<?xml version="1.0" encoding="UTF-8"?>
<!DOCTYPE svg PUBLIC "-//W3C//DTD SVG 1.1//EN" "http://www.w3.org/Graphics/SVG/1.1/DTD/svg11.dtd">
<svg xmlns="http://www.w3.org/2000/svg" version="1.1" width="40px" height="40px" style="shape-rendering:geometricPrecision; text-rendering:geometricPrecision; image-rendering:optimizeQuality; fill-rule:evenodd; clip-rule:evenodd" xmlns:xlink="http://www.w3.org/1999/xlink">
<g><path style="opacity:0.949" fill="#5b616d" d="M 10.5,-0.5 C 14.5,-0.5 18.5,-0.5 22.5,-0.5C 34.1394,6.2575 36.4728,15.4242 29.5,27C 32.7025,30.3709 36.0359,33.5375 39.5,36.5C 39.5,37.5 39.5,38.5 39.5,39.5C 37.8333,39.5 36.1667,39.5 34.5,39.5C 31.8544,36.1877 28.8544,33.1877 25.5,30.5C 13.0034,35.3466 4.3367,31.68 -0.5,19.5C -0.5,17.1667 -0.5,14.8333 -0.5,12.5C 1.35068,6.64785 5.01735,2.31451 10.5,-0.5 Z M 13.5,3.5 C 22.4357,3.12733 27.769,7.29399 29.5,16C 26.6784,27.3718 20.0117,30.7051 9.5,26C 4.84684,22.2115 3.34684,17.3782 5,11.5C 7.09821,7.89715 9.93154,5.23049 13.5,3.5 Z"/></g>
</svg>
