<?xml version="1.0" encoding="UTF-8"?>
<!DOCTYPE svg PUBLIC "-//W3C//DTD SVG 1.1//EN" "http://www.w3.org/Graphics/SVG/1.1/DTD/svg11.dtd">
<svg xmlns="http://www.w3.org/2000/svg" version="1.1" width="40px" height="40px" style="shape-rendering:geometricPrecision; text-rendering:geometricPrecision; image-rendering:optimizeQuality; fill-rule:evenodd; clip-rule:evenodd" xmlns:xlink="http://www.w3.org/1999/xlink">
<g><path style="opacity:0.85" fill="#525863" d="M 14.5,8.5 C 26.9901,6.82266 32.1568,12.156 30,24.5C 29.2155,26.286 28.0488,27.786 26.5,29C 13.0744,33.2377 7.24111,28.4043 9,14.5C 10.3597,11.9774 12.193,9.97739 14.5,8.5 Z M 16.5,10.5 C 24.9863,10.1514 28.8197,14.1514 28,22.5C 25.6471,27.4264 21.8138,29.2598 16.5,28C 8.5548,22.1697 8.5548,16.3363 16.5,10.5 Z"/></g>
<g><path style="opacity:0.891" fill="#505560" d="M 8.5,2.5 C 9.49162,2.32842 10.1583,2.66175 10.5,3.5C 9.81122,4.70722 9.64455,6.04055 10,7.5C 8.75737,9.83293 7.09071,10.4996 5,9.5C 4.5,10 4,10.5 3.5,11C 6.08355,14.3973 5.41688,17.2306 1.5,19.5C 5.41688,21.7694 6.08355,24.6027 3.5,28C 4.57191,29.2837 5.90525,29.6171 7.5,29C 8.38053,29.7083 9.0472,30.5416 9.5,31.5C 8.83333,32.1667 8.16667,32.8333 7.5,33.5C 6.15909,31.88 4.32576,30.88 2,30.5C -0.0780354,28.3194 0.0886313,26.3194 2.5,24.5C 1.99525,23.0815 0.995251,22.4148 -0.5,22.5C -0.5,20.5 -0.5,18.5 -0.5,16.5C 3.08936,15.6279 3.42269,13.9613 0.5,11.5C 1.2164,8.31603 3.2164,6.81603 6.5,7C 7.09891,5.37753 7.76558,3.87753 8.5,2.5 Z"/></g>
<g><path style="opacity:0.907" fill="#4f555f" d="M 16.5,-0.5 C 18.5,-0.5 20.5,-0.5 22.5,-0.5C 23.3721,3.08936 25.0387,3.42269 27.5,0.5C 30.684,1.2164 32.184,3.2164 32,6.5C 35.3225,6.69859 37.4891,8.36526 38.5,11.5C 35.5773,13.9613 35.9106,15.6279 39.5,16.5C 39.5,18.5 39.5,20.5 39.5,22.5C 35.9106,23.3721 35.5773,25.0387 38.5,27.5C 38.0576,28.7387 37.3909,29.7387 36.5,30.5C 36.6716,29.5084 36.3382,28.8417 35.5,28.5C 32.7903,24.925 33.4569,21.925 37.5,19.5C 33.5831,17.2306 32.9165,14.3973 35.5,11C 34.4281,9.71626 33.0948,9.38293 31.5,10C 29.1671,8.75737 28.5004,7.09071 29.5,5C 29,4.5 28.5,4 28,3.5C 24.6027,6.08355 21.7694,5.41688 19.5,1.5C 17.075,5.54305 14.075,6.20972 10.5,3.5C 10.1583,2.66175 9.49162,2.32842 8.5,2.5C 10.4211,-0.106196 12.4211,-0.106196 14.5,2.5C 15.9185,1.99525 16.5852,0.995251 16.5,-0.5 Z"/></g>
<g><path style="opacity:0.889" fill="#505661" d="M 35.5,28.5 C 36.3382,28.8417 36.6716,29.5084 36.5,30.5C 35.1225,31.2344 33.6225,31.9011 32,32.5C 31.3078,37.7614 28.8078,39.0947 24.5,36.5C 23.0815,37.0047 22.4148,38.0047 22.5,39.5C 20.5,39.5 18.5,39.5 16.5,39.5C 15.6279,35.9106 13.9613,35.5773 11.5,38.5C 8.64927,37.9879 7.31594,36.3213 7.5,33.5C 8.16667,32.8333 8.83333,32.1667 9.5,31.5C 9.63885,32.9191 10.1389,34.2524 11,35.5C 14.3973,32.9165 17.2306,33.5831 19.5,37.5C 21.7694,33.5831 24.6027,32.9165 28,35.5C 29.2837,34.4281 29.6171,33.0948 29,31.5C 29.8333,30.6667 30.6667,29.8333 31.5,29C 32.9594,29.3554 34.2928,29.1888 35.5,28.5 Z"/></g>
</svg>
