<?xml version="1.0" encoding="UTF-8"?>
<!DOCTYPE svg PUBLIC "-//W3C//DTD SVG 1.1//EN" "http://www.w3.org/Graphics/SVG/1.1/DTD/svg11.dtd">
<svg xmlns="http://www.w3.org/2000/svg" version="1.1" width="40px" height="40px" style="shape-rendering:geometricPrecision; text-rendering:geometricPrecision; image-rendering:optimizeQuality; fill-rule:evenodd; clip-rule:evenodd" xmlns:xlink="http://www.w3.org/1999/xlink">
<g><path style="opacity:0.982" fill="#ad8fed" d="M 17.5,-0.5 C 20.1667,-0.5 22.8333,-0.5 25.5,-0.5C 26.4499,2.11493 28.1165,4.11493 30.5,5.5C 29.8333,5.5 29.1667,5.5 28.5,5.5C 26.6964,4.61931 25.1964,3.28598 24,1.5C 23.6258,2.41623 23.1258,3.24956 22.5,4C 19.6898,4.78226 17.0232,5.61559 14.5,6.5C 13.8333,6.5 13.5,6.16667 13.5,5.5C 13.5,4.83333 13.5,4.16667 13.5,3.5C 14.8333,2.16667 16.1667,0.833333 17.5,-0.5 Z"/></g>
<g><path style="opacity:1" fill="#9f7fec" d="M 28.5,5.5 C 28.5,6.16667 28.5,6.83333 28.5,7.5C 27.8333,7.83333 27.1667,8.16667 26.5,8.5C 22.4543,8.04794 18.4543,7.38128 14.5,6.5C 17.0232,5.61559 19.6898,4.78226 22.5,4C 23.1258,3.24956 23.6258,2.41623 24,1.5C 25.1964,3.28598 26.6964,4.61931 28.5,5.5 Z"/></g>
<g><path style="opacity:1" fill="#d2d5e7" d="M 13.5,5.5 C 13.5,6.16667 13.8333,6.5 14.5,6.5C 15.4124,7.7382 15.5791,9.07153 15,10.5C 12.6742,10.88 10.8409,11.88 9.5,13.5C 8.54885,14.9187 8.21552,16.5853 8.5,18.5C 7.83333,18.5 7.16667,18.5 6.5,18.5C 7.22215,14.494 8.05548,10.494 9,6.5C 10.3561,5.61983 11.8561,5.28649 13.5,5.5 Z"/></g>
<g><path style="opacity:1" fill="#d5d6e8" d="M 28.5,7.5 C 29.5832,7.53944 30.5832,7.87277 31.5,8.5C 32.8688,15.1512 32.2022,21.4846 29.5,27.5C 29.4138,24.852 29.0805,22.1853 28.5,19.5C 28.1667,19.5 27.8333,19.5 27.5,19.5C 28.1667,18.8333 28.8333,18.1667 29.5,17.5C 29.7678,15.901 29.4345,14.5676 28.5,13.5C 26.369,12.6862 24.0356,12.1862 21.5,12C 23.9357,11.7935 25.6024,10.6269 26.5,8.5C 27.1667,8.16667 27.8333,7.83333 28.5,7.5 Z"/></g>
<g><path style="opacity:1" fill="#c2c0ed" d="M 14.5,6.5 C 18.4543,7.38128 22.4543,8.04794 26.5,8.5C 25.6024,10.6269 23.9357,11.7935 21.5,12C 24.0356,12.1862 26.369,12.6862 28.5,13.5C 24.7983,13.579 21.1317,13.2457 17.5,12.5C 15.0884,12.4062 13.255,13.4062 12,15.5C 11.2917,14.6195 10.4584,13.9528 9.5,13.5C 10.8409,11.88 12.6742,10.88 15,10.5C 15.5791,9.07153 15.4124,7.7382 14.5,6.5 Z"/></g>
<g><path style="opacity:1" fill="#9291ed" d="M 28.5,13.5 C 29.4345,14.5676 29.7678,15.901 29.5,17.5C 25.4862,17.6655 21.4862,17.4988 17.5,17C 16.9535,16.0754 16.2868,15.2421 15.5,14.5C 12.7359,17.4546 10.7359,17.1212 9.5,13.5C 10.4584,13.9528 11.2917,14.6195 12,15.5C 13.255,13.4062 15.0884,12.4062 17.5,12.5C 21.1317,13.2457 24.7983,13.579 28.5,13.5 Z"/></g>
<g><path style="opacity:0.443" fill="#e7974a" d="M 37.5,10.5 C 35.7076,19.6007 34.041,28.6007 32.5,37.5C 31.8333,37.5 31.1667,37.5 30.5,37.5C 32.2681,34.8375 32.9347,31.8375 32.5,28.5C 33.0677,23.0949 34.0677,17.7616 35.5,12.5C 35.7472,11.2867 36.4138,10.62 37.5,10.5 Z"/></g>
<g><path style="opacity:1" fill="#b8b8ec" d="M 9.5,13.5 C 10.7359,17.1212 12.7359,17.4546 15.5,14.5C 16.2868,15.2421 16.9535,16.0754 17.5,17C 21.4862,17.4988 25.4862,17.6655 29.5,17.5C 28.8333,18.1667 28.1667,18.8333 27.5,19.5C 23.2932,18.9308 19.1265,18.2641 15,17.5C 13.1304,20.8822 10.9637,21.2155 8.5,18.5C 8.21552,16.5853 8.54885,14.9187 9.5,13.5 Z"/></g>
<g><path style="opacity:1" fill="#e8b07f" d="M 28.5,5.5 C 29.1667,5.5 29.8333,5.5 30.5,5.5C 34.1398,5.47535 36.4731,7.14202 37.5,10.5C 36.4138,10.62 35.7472,11.2867 35.5,12.5C 34.0677,17.7616 33.0677,23.0949 32.5,28.5C 31.8333,28.5 31.1667,28.5 30.5,28.5C 30.1667,28.5 29.8333,28.5 29.5,28.5C 29.5,28.1667 29.5,27.8333 29.5,27.5C 32.2022,21.4846 32.8688,15.1512 31.5,8.5C 30.5832,7.87277 29.5832,7.53944 28.5,7.5C 28.5,6.83333 28.5,6.16667 28.5,5.5 Z"/></g>
<g><path style="opacity:0.604" fill="#e6ac7d" d="M 13.5,3.5 C 13.5,4.16667 13.5,4.83333 13.5,5.5C 11.8561,5.28649 10.3561,5.61983 9,6.5C 8.05548,10.494 7.22215,14.494 6.5,18.5C 5.95184,20.6264 5.28518,22.6264 4.5,24.5C 4.5,23.8333 4.16667,23.5 3.5,23.5C 4.65457,17.5568 5.48791,11.5568 6,5.5C 8.13544,3.7215 10.6354,3.05484 13.5,3.5 Z"/></g>
<g><path style="opacity:1" fill="#9391ec" d="M 27.5,19.5 C 27.8333,19.5 28.1667,19.5 28.5,19.5C 28.7678,21.099 28.4345,22.4324 27.5,23.5C 23.5,23.1667 19.5,22.8333 15.5,22.5C 15.6495,21.448 15.4828,20.448 15,19.5C 13.2111,21.229 11.0444,21.8957 8.5,21.5C 8.5,20.5 8.5,19.5 8.5,18.5C 10.9637,21.2155 13.1304,20.8822 15,17.5C 19.1265,18.2641 23.2932,18.9308 27.5,19.5 Z"/></g>
<g><path style="opacity:1" fill="#cfd3e9" d="M 6.5,18.5 C 7.16667,18.5 7.83333,18.5 8.5,18.5C 8.5,19.5 8.5,20.5 8.5,21.5C 7.65859,23.3792 7.32526,25.3792 7.5,27.5C 9.69798,27.8799 11.3646,27.2132 12.5,25.5C 15.6013,28.5666 19.2679,29.2332 23.5,27.5C 23.762,28.9778 23.4287,30.3112 22.5,31.5C 21.914,31.2907 21.414,30.9574 21,30.5C 20.6905,31.7659 20.1905,32.9326 19.5,34C 17.5273,34.4955 15.5273,34.6621 13.5,34.5C 5.6636,35.6602 2.6636,32.3268 4.5,24.5C 5.28518,22.6264 5.95184,20.6264 6.5,18.5 Z"/></g>
<g><path style="opacity:1" fill="#b2afec" d="M 27.5,23.5 C 27.5,24.1667 27.5,24.8333 27.5,25.5C 23.3417,24.8706 19.1751,24.204 15,23.5C 13.699,23.6387 12.8656,24.3054 12.5,25.5C 11.3646,27.2132 9.69798,27.8799 7.5,27.5C 7.32526,25.3792 7.65859,23.3792 8.5,21.5C 11.0444,21.8957 13.2111,21.229 15,19.5C 15.4828,20.448 15.6495,21.448 15.5,22.5C 19.5,22.8333 23.5,23.1667 27.5,23.5 Z"/></g>
<g><path style="opacity:1" fill="#9493ed" d="M 27.5,25.5 C 26.8166,27.1765 25.4832,27.8432 23.5,27.5C 19.2679,29.2332 15.6013,28.5666 12.5,25.5C 12.8656,24.3054 13.699,23.6387 15,23.5C 19.1751,24.204 23.3417,24.8706 27.5,25.5 Z"/></g>
<g><path style="opacity:1" fill="#c8bcd9" d="M 28.5,19.5 C 29.0805,22.1853 29.4138,24.852 29.5,27.5C 29.5,27.8333 29.5,28.1667 29.5,28.5C 26.6806,30.4188 24.014,32.5855 21.5,35C 18.854,35.4974 16.1873,35.6641 13.5,35.5C 13.5,35.1667 13.5,34.8333 13.5,34.5C 15.5273,34.6621 17.5273,34.4955 19.5,34C 20.1905,32.9326 20.6905,31.7659 21,30.5C 21.414,30.9574 21.914,31.2907 22.5,31.5C 23.4287,30.3112 23.762,28.9778 23.5,27.5C 25.4832,27.8432 26.8166,27.1765 27.5,25.5C 27.5,24.8333 27.5,24.1667 27.5,23.5C 28.4345,22.4324 28.7678,21.099 28.5,19.5 Z"/></g>
<g><path style="opacity:1" fill="#e9ac72" d="M 30.5,28.5 C 31.1667,28.5 31.8333,28.5 32.5,28.5C 32.9347,31.8375 32.2681,34.8375 30.5,37.5C 30.1667,37.5 29.8333,37.5 29.5,37.5C 25.1539,37.6657 20.8206,37.499 16.5,37C 22.2807,36.0625 26.9474,33.2291 30.5,28.5 Z"/></g>
<g><path style="opacity:1" fill="#e5a06b" d="M 3.5,23.5 C 4.16667,23.5 4.5,23.8333 4.5,24.5C 2.6636,32.3268 5.6636,35.6602 13.5,34.5C 13.5,34.8333 13.5,35.1667 13.5,35.5C 11.7354,36.4614 9.73535,36.7947 7.5,36.5C 6.16667,36.5 4.83333,36.5 3.5,36.5C 2.88258,36.3893 2.38258,36.056 2,35.5C 1.20152,31.2191 1.70152,27.2191 3.5,23.5 Z"/></g>
<g><path style="opacity:1" fill="#df8d59" d="M 29.5,28.5 C 29.8333,28.5 30.1667,28.5 30.5,28.5C 26.9474,33.2291 22.2807,36.0625 16.5,37C 20.8206,37.499 25.1539,37.6657 29.5,37.5C 22.1102,38.8522 14.7768,38.5189 7.5,36.5C 9.73535,36.7947 11.7354,36.4614 13.5,35.5C 16.1873,35.6641 18.854,35.4974 21.5,35C 24.014,32.5855 26.6806,30.4188 29.5,28.5 Z"/></g>
<g><path style="opacity:0.196" fill="#d0673e" d="M 3.5,36.5 C 4.83333,36.5 6.16667,36.5 7.5,36.5C 14.7768,38.5189 22.1102,38.8522 29.5,37.5C 29.8333,37.5 30.1667,37.5 30.5,37.5C 31.1667,37.5 31.8333,37.5 32.5,37.5C 32.5,38.1667 32.5,38.8333 32.5,39.5C 25.1667,39.5 17.8333,39.5 10.5,39.5C 8.0248,38.8686 5.69147,37.8686 3.5,36.5 Z"/></g>
</svg>
