<?xml version="1.0" encoding="UTF-8"?>
<!DOCTYPE svg PUBLIC "-//W3C//DTD SVG 1.1//EN" "http://www.w3.org/Graphics/SVG/1.1/DTD/svg11.dtd">
<svg xmlns="http://www.w3.org/2000/svg" version="1.1" width="40px" height="40px" style="shape-rendering:geometricPrecision; text-rendering:geometricPrecision; image-rendering:optimizeQuality; fill-rule:evenodd; clip-rule:evenodd" xmlns:xlink="http://www.w3.org/1999/xlink">
<g><path style="opacity:0.988" fill="#e1b873" d="M 1.5,2.5 C 3.16667,2.5 4.83333,2.5 6.5,2.5C 6.5,3.83333 6.5,5.16667 6.5,6.5C 2.63011,8.31403 0.963445,6.9807 1.5,2.5 Z"/></g>
<g><path style="opacity:1" fill="#e3b870" d="M 19.5,7.5 C 20.1275,10.6572 21.1275,13.6572 22.5,16.5C 20.5,16.5 19.5,17.5 19.5,19.5C 19.44,20.0431 19.1067,20.3764 18.5,20.5C 15.385,18.3493 12.0517,16.6826 8.5,15.5C 8.5,15.1667 8.5,14.8333 8.5,14.5C 8.24358,12.2075 8.57692,10.0408 9.5,8C 12.8168,7.50166 16.1501,7.33499 19.5,7.5 Z"/></g>
<g><path style="opacity:1" fill="#e289a8" d="M 31.5,14.5 C 30.209,14.2627 29.209,14.596 28.5,15.5C 26.5,15.8333 24.5,16.1667 22.5,16.5C 21.1275,13.6572 20.1275,10.6572 19.5,7.5C 19.7619,5.4362 20.9286,4.10287 23,3.5C 26.0757,4.28827 29.2423,4.78827 32.5,5C 33.1222,6.56912 33.4555,8.23579 33.5,10C 33.4313,11.9855 32.7647,13.4855 31.5,14.5 Z"/></g>
<g><path style="opacity:1" fill="#dfd0bf" d="M 15.5,10.5 C 18.0838,11.0483 19.0838,12.715 18.5,15.5C 17.1667,15.5 15.8333,15.5 14.5,15.5C 14.366,13.7085 14.6993,12.0418 15.5,10.5 Z"/></g>
<g><path style="opacity:0.693" fill="#e084ac" d="M 39.5,12.5 C 39.5,13.8333 39.5,15.1667 39.5,16.5C 38.2921,17.2341 36.9587,17.5674 35.5,17.5C 33.7372,13.5841 35.0706,11.9174 39.5,12.5 Z"/></g>
<g><path style="opacity:0.94" fill="#f0eff0" d="M 8.5,14.5 C 8.5,14.8333 8.5,15.1667 8.5,15.5C 8.53944,16.5832 8.87277,17.5832 9.5,18.5C 12.4735,20.1468 15.1401,22.1468 17.5,24.5C 14.9135,25.48 12.2469,25.8134 9.5,25.5C 9.71481,27.1788 9.04814,28.1788 7.5,28.5C 4.73956,25.3173 2.73956,21.6506 1.5,17.5C 3.0304,14.9791 5.36373,13.9791 8.5,14.5 Z"/></g>
<g><path style="opacity:0.962" fill="#eae7e6" d="M 28.5,15.5 C 29.209,14.596 30.209,14.2627 31.5,14.5C 32.795,15.4884 34.1283,16.4884 35.5,17.5C 36.3045,20.4422 37.6378,23.1089 39.5,25.5C 39.5,26.1667 39.5,26.8333 39.5,27.5C 38.8333,27.5 38.1667,27.5 37.5,27.5C 32.7808,26.1698 28.1141,26.5032 23.5,28.5C 19.3073,26.9342 14.974,26.2675 10.5,26.5C 10.7373,27.791 10.404,28.791 9.5,29.5C 8.50838,29.6716 7.84171,29.3382 7.5,28.5C 9.04814,28.1788 9.71481,27.1788 9.5,25.5C 12.2469,25.8134 14.9135,25.48 17.5,24.5C 15.1401,22.1468 12.4735,20.1468 9.5,18.5C 8.87277,17.5832 8.53944,16.5832 8.5,15.5C 12.0517,16.6826 15.385,18.3493 18.5,20.5C 19.1067,20.3764 19.44,20.0431 19.5,19.5C 20.5177,21.3519 21.8511,23.0186 23.5,24.5C 30.6301,27.2041 33.1301,24.8708 31,17.5C 30.2917,16.6195 29.4584,15.9528 28.5,15.5 Z"/></g>
<g><path style="opacity:1" fill="#eeebea" d="M 28.5,15.5 C 29.4584,15.9528 30.2917,16.6195 31,17.5C 33.1301,24.8708 30.6301,27.2041 23.5,24.5C 21.8511,23.0186 20.5177,21.3519 19.5,19.5C 19.5,17.5 20.5,16.5 22.5,16.5C 24.5,16.1667 26.5,15.8333 28.5,15.5 Z"/></g>
<g><path style="opacity:1" fill="#c298eb" d="M 1.5,17.5 C 2.73956,21.6506 4.73956,25.3173 7.5,28.5C 7.84171,29.3382 8.50838,29.6716 9.5,29.5C 9.5,29.8333 9.5,30.1667 9.5,30.5C 7.85637,30.8102 6.85637,31.8102 6.5,33.5C 4.16667,30.1667 1.83333,26.8333 -0.5,23.5C -0.5,21.8333 -0.5,20.1667 -0.5,18.5C 0.166667,18.1667 0.833333,17.8333 1.5,17.5 Z"/></g>
<g><path style="opacity:1" fill="#cccbd1" d="M 37.5,27.5 C 37.5858,28.4959 37.2524,29.3292 36.5,30C 31.8528,30.9412 27.1862,31.7745 22.5,32.5C 18.1969,31.5723 13.8636,30.9056 9.5,30.5C 9.5,30.1667 9.5,29.8333 9.5,29.5C 10.404,28.791 10.7373,27.791 10.5,26.5C 14.974,26.2675 19.3073,26.9342 23.5,28.5C 28.1141,26.5032 32.7808,26.1698 37.5,27.5 Z"/></g>
<g><path style="opacity:1" fill="#8b5bd1" d="M 37.5,27.5 C 38.1667,27.5 38.8333,27.5 39.5,27.5C 39.5,28.8333 39.5,30.1667 39.5,31.5C 33.9836,32.3363 28.4836,33.3363 23,34.5C 18.6767,33.3022 14.51,33.3022 10.5,34.5C 9.16667,34.1667 7.83333,33.8333 6.5,33.5C 6.85637,31.8102 7.85637,30.8102 9.5,30.5C 13.8636,30.9056 18.1969,31.5723 22.5,32.5C 27.1862,31.7745 31.8528,30.9412 36.5,30C 37.2524,29.3292 37.5858,28.4959 37.5,27.5 Z"/></g>
<g><path style="opacity:0.414" fill="#6435b3" d="M 39.5,31.5 C 39.5,32.1667 39.5,32.8333 39.5,33.5C 33.8144,34.1714 28.1477,35.1714 22.5,36.5C 18.7338,34.8597 14.7338,34.193 10.5,34.5C 14.51,33.3022 18.6767,33.3022 23,34.5C 28.4836,33.3363 33.9836,32.3363 39.5,31.5 Z"/></g>
</svg>
