<?xml version="1.0" encoding="UTF-8"?>
<!DOCTYPE svg PUBLIC "-//W3C//DTD SVG 1.1//EN" "http://www.w3.org/Graphics/SVG/1.1/DTD/svg11.dtd">
<svg xmlns="http://www.w3.org/2000/svg" version="1.1" width="40px" height="40px" style="shape-rendering:geometricPrecision; text-rendering:geometricPrecision; image-rendering:optimizeQuality; fill-rule:evenodd; clip-rule:evenodd" xmlns:xlink="http://www.w3.org/1999/xlink">
<g><path style="opacity:0.947" fill="#556380" d="M 19.5,-0.5 C 25.8333,-0.5 32.1667,-0.5 38.5,-0.5C 38.8799,1.69798 38.2132,3.36465 36.5,4.5C 33.8333,3.16667 31.1667,3.16667 28.5,4.5C 25.5,4.5 22.5,4.5 19.5,4.5C 20.9516,3.69808 22.6183,3.19808 24.5,3C 22.256,2.95042 20.5893,2.11709 19.5,0.5C 19.5,0.166667 19.5,-0.166667 19.5,-0.5 Z"/></g>
<g><path style="opacity:0.997" fill="#5d6b88" d="M 19.5,0.5 C 20.5893,2.11709 22.256,2.95042 24.5,3C 22.6183,3.19808 20.9516,3.69808 19.5,4.5C 13.6989,5.08048 8.03222,5.74715 2.5,6.5C 1.83333,6.5 1.5,6.83333 1.5,7.5C 0.548855,6.08134 0.215521,4.41467 0.5,2.5C 6.78228,1.4232 13.1156,0.756534 19.5,0.5 Z"/></g>
<g><path style="opacity:1" fill="#8490d9" d="M 19.5,4.5 C 22.5,4.5 25.5,4.5 28.5,4.5C 30.5,4.5 32.5,4.5 34.5,4.5C 34.5,7.5 34.5,10.5 34.5,13.5C 31.1667,13.5 27.8333,13.5 24.5,13.5C 26.1016,11.9261 28.1016,11.2594 30.5,11.5C 30.5,10.5 30.5,9.5 30.5,8.5C 28.3193,8.71634 26.6526,7.88301 25.5,6C 23.5273,5.50454 21.5273,5.33788 19.5,5.5C 19.6261,7.19981 20.2927,8.69981 21.5,10C 21.4301,10.7648 21.0967,11.2648 20.5,11.5C 18.3311,7.74847 14.9977,6.08181 10.5,6.5C 7.83333,6.5 5.16667,6.5 2.5,6.5C 8.03222,5.74715 13.6989,5.08048 19.5,4.5 Z"/></g>
<g><path style="opacity:1" fill="#93a0e0" d="M 24.5,13.5 C 24.1667,13.5 23.8333,13.5 23.5,13.5C 21.9582,12.6993 20.2915,12.366 18.5,12.5C 17.448,12.6495 16.448,12.4828 15.5,12C 17.1341,11.5065 18.8008,11.3398 20.5,11.5C 21.0967,11.2648 21.4301,10.7648 21.5,10C 20.2927,8.69981 19.6261,7.19981 19.5,5.5C 21.5273,5.33788 23.5273,5.50454 25.5,6C 26.6526,7.88301 28.3193,8.71634 30.5,8.5C 30.5,9.5 30.5,10.5 30.5,11.5C 28.1016,11.2594 26.1016,11.9261 24.5,13.5 Z"/></g>
<g><path style="opacity:0.801" fill="#8895e2" d="M 2.5,6.5 C 5.16667,6.5 7.83333,6.5 10.5,6.5C 10.9038,7.75644 11.5705,8.9231 12.5,10C 12.4301,10.7648 12.0967,11.2648 11.5,11.5C 9.41244,8.30782 6.91244,7.97448 4,10.5C 3.50051,16.4908 3.33385,22.4908 3.5,28.5C 3.16667,28.5 2.83333,28.5 2.5,28.5C 2.71968,21.4567 2.38635,14.4567 1.5,7.5C 1.5,6.83333 1.83333,6.5 2.5,6.5 Z"/></g>
<g><path style="opacity:0.999" fill="#95a4e4" d="M 11.5,11.5 C 9.89461,12.0059 9.56127,12.6726 10.5,13.5C 10.5,13.8333 10.5,14.1667 10.5,14.5C 9.17793,14.33 8.01127,14.6634 7,15.5C 6.5,18.5 6,21.5 5.5,24.5C 5.63985,26.0296 6.30652,27.0296 7.5,27.5C 6.43236,28.4345 5.09903,28.7678 3.5,28.5C 3.33385,22.4908 3.50051,16.4908 4,10.5C 6.91244,7.97448 9.41244,8.30782 11.5,11.5 Z"/></g>
<g><path style="opacity:1" fill="#9fa8e1" d="M 10.5,6.5 C 14.9977,6.08181 18.3311,7.74847 20.5,11.5C 18.8008,11.3398 17.1341,11.5065 15.5,12C 16.448,12.4828 17.448,12.6495 18.5,12.5C 18.9167,15.0792 18.25,17.2458 16.5,19C 17.7932,19.49 19.1266,19.6567 20.5,19.5C 20.5,20.8333 20.5,22.1667 20.5,23.5C 18.8333,23.5 17.1667,23.5 15.5,23.5C 14.6827,20.5214 13.8494,17.5214 13,14.5C 12.3292,13.7476 11.4959,13.4142 10.5,13.5C 9.56127,12.6726 9.89461,12.0059 11.5,11.5C 12.0967,11.2648 12.4301,10.7648 12.5,10C 11.5705,8.9231 10.9038,7.75644 10.5,6.5 Z"/></g>
<g><path style="opacity:1" fill="#8b94db" d="M 18.5,12.5 C 20.2915,12.366 21.9582,12.6993 23.5,13.5C 23.5,13.8333 23.5,14.1667 23.5,14.5C 21.9519,14.8212 21.2852,15.8212 21.5,17.5C 23.1992,17.3398 24.8659,17.5065 26.5,18C 23.5938,21.3106 21.9272,25.144 21.5,29.5C 24.5,29.5 27.5,29.5 30.5,29.5C 32.2191,30.0221 33.5525,31.0221 34.5,32.5C 28.128,32.1253 21.7947,31.4586 15.5,30.5C 18.033,28.0865 18.033,25.7531 15.5,23.5C 17.1667,23.5 18.8333,23.5 20.5,23.5C 20.5,22.1667 20.5,20.8333 20.5,19.5C 19.1266,19.6567 17.7932,19.49 16.5,19C 18.25,17.2458 18.9167,15.0792 18.5,12.5 Z"/></g>
<g><path style="opacity:0.999" fill="#7b82d1" d="M 28.5,4.5 C 31.1667,3.16667 33.8333,3.16667 36.5,4.5C 35.9026,14.0966 36.5692,23.4299 38.5,32.5C 37.7784,32.9175 37.2784,33.5842 37,34.5C 36.6012,34.2716 36.4346,33.9382 36.5,33.5C 36.1583,32.6618 35.4916,32.3284 34.5,32.5C 33.5525,31.0221 32.2191,30.0221 30.5,29.5C 31.4345,28.4324 31.7678,27.099 31.5,25.5C 29.712,25.7852 28.0453,25.4519 26.5,24.5C 28.2721,21.1064 29.9387,17.7731 31.5,14.5C 28.8333,14.5 26.1667,14.5 23.5,14.5C 23.5,14.1667 23.5,13.8333 23.5,13.5C 23.8333,13.5 24.1667,13.5 24.5,13.5C 27.8333,13.5 31.1667,13.5 34.5,13.5C 34.5,10.5 34.5,7.5 34.5,4.5C 32.5,4.5 30.5,4.5 28.5,4.5 Z"/></g>
<g><path style="opacity:1" fill="#dea5cb" d="M 23.5,14.5 C 26.1667,14.5 28.8333,14.5 31.5,14.5C 29.9387,17.7731 28.2721,21.1064 26.5,24.5C 28.0453,25.4519 29.712,25.7852 31.5,25.5C 31.7678,27.099 31.4345,28.4324 30.5,29.5C 27.5,29.5 24.5,29.5 21.5,29.5C 21.9272,25.144 23.5938,21.3106 26.5,18C 24.8659,17.5065 23.1992,17.3398 21.5,17.5C 21.2852,15.8212 21.9519,14.8212 23.5,14.5 Z"/></g>
<g><path style="opacity:1" fill="#86cde5" d="M 10.5,14.5 C 11.1174,14.6107 11.6174,14.944 12,15.5C 13.154,19.447 13.9873,23.447 14.5,27.5C 13.5,27.5 12.5,27.5 11.5,27.5C 11.5,26.5 11.5,25.5 11.5,24.5C 9.38115,24.4677 8.04782,25.4677 7.5,27.5C 6.30652,27.0296 5.63985,26.0296 5.5,24.5C 6,21.5 6.5,18.5 7,15.5C 8.01127,14.6634 9.17793,14.33 10.5,14.5 Z"/></g>
<g><path style="opacity:1" fill="#8091da" d="M 10.5,14.5 C 10.5,14.1667 10.5,13.8333 10.5,13.5C 11.4959,13.4142 12.3292,13.7476 13,14.5C 13.8494,17.5214 14.6827,20.5214 15.5,23.5C 18.033,25.7531 18.033,28.0865 15.5,30.5C 11.3164,30.1491 7.31637,29.4824 3.5,28.5C 5.09903,28.7678 6.43236,28.4345 7.5,27.5C 8.04782,25.4677 9.38115,24.4677 11.5,24.5C 11.5,25.5 11.5,26.5 11.5,27.5C 12.5,27.5 13.5,27.5 14.5,27.5C 13.9873,23.447 13.154,19.447 12,15.5C 11.6174,14.944 11.1174,14.6107 10.5,14.5 Z"/></g>
<g><path style="opacity:0.996" fill="#5d6c8d" d="M 2.5,28.5 C 2.83333,28.5 3.16667,28.5 3.5,28.5C 7.31637,29.4824 11.3164,30.1491 15.5,30.5C 21.7947,31.4586 28.128,32.1253 34.5,32.5C 35.4916,32.3284 36.1583,32.6618 36.5,33.5C 34.087,34.1115 31.587,34.4448 29,34.5C 19.9199,33.0376 10.7532,32.0376 1.5,31.5C 0.284848,30.221 0.618182,29.221 2.5,28.5 Z"/></g>
<g><path style="opacity:1" fill="#4d5a75" d="M 1.5,31.5 C 10.7532,32.0376 19.9199,33.0376 29,34.5C 31.587,34.4448 34.087,34.1115 36.5,33.5C 36.4346,33.9382 36.6012,34.2716 37,34.5C 37.2784,33.5842 37.7784,32.9175 38.5,32.5C 39.0853,35.2605 38.0853,36.9272 35.5,37.5C 30.8502,36.6689 26.1835,36.0022 21.5,35.5C 19.8828,34.962 18.2161,34.6287 16.5,34.5C 11.1835,34.4514 6.18353,33.4514 1.5,31.5 Z"/></g>
<g><path style="opacity:0.847" fill="#e4ba7e" d="M 16.5,34.5 C 18.2161,34.6287 19.8828,34.962 21.5,35.5C 21.5,36.8333 21.5,38.1667 21.5,39.5C 19.5,39.5 17.5,39.5 15.5,39.5C 15.366,37.7085 15.6993,36.0418 16.5,34.5 Z"/></g>
</svg>
