<?xml version="1.0" encoding="UTF-8"?>
<!DOCTYPE svg PUBLIC "-//W3C//DTD SVG 1.1//EN" "http://www.w3.org/Graphics/SVG/1.1/DTD/svg11.dtd">
<svg xmlns="http://www.w3.org/2000/svg" version="1.1" width="40px" height="40px" style="shape-rendering:geometricPrecision; text-rendering:geometricPrecision; image-rendering:optimizeQuality; fill-rule:evenodd; clip-rule:evenodd" xmlns:xlink="http://www.w3.org/1999/xlink">
<g><path style="opacity:0.864" fill="#b1bcd7" d="M 29.5,-0.5 C 31.1667,-0.5 32.8333,-0.5 34.5,-0.5C 34.615,1.94678 35.615,3.94678 37.5,5.5C 36.2058,6.2899 35.0391,7.2899 34,8.5C 32.0236,7.17828 30.5236,5.51162 29.5,3.5C 29.5,2.16667 29.5,0.833333 29.5,-0.5 Z"/></g>
<g><path style="opacity:1" fill="#adb9db" d="M 18.5,4.5 C 17.0319,6.61093 17.3652,8.44426 19.5,10C 18.4734,10.5133 17.4734,11.0133 16.5,11.5C 14.8291,9.3627 13.1625,7.3627 11.5,5.5C 13.287,-0.341856 15.6203,-0.675189 18.5,4.5 Z"/></g>
<g><path style="opacity:1" fill="#a0b4e5" d="M 11.5,5.5 C 13.1625,7.3627 14.8291,9.3627 16.5,11.5C 16.5,11.8333 16.5,12.1667 16.5,12.5C 14.6203,12.2291 13.287,12.8958 12.5,14.5C 11.8333,14.1667 11.1667,13.8333 10.5,13.5C 10.1667,13.5 9.83333,13.5 9.5,13.5C 7.5,11.1667 5.5,8.83333 3.5,6.5C 3.67484,4.15564 4.84151,2.48897 7,1.5C 8.37121,3.04138 9.87121,4.37471 11.5,5.5 Z"/></g>
<g><path style="opacity:1" fill="#a7b9e8" d="M 22.5,-0.5 C 23.5,-0.5 24.5,-0.5 25.5,-0.5C 26.2341,0.707917 26.5674,2.04125 26.5,3.5C 27.5,3.5 28.5,3.5 29.5,3.5C 30.5236,5.51162 32.0236,7.17828 34,8.5C 35.0391,7.2899 36.2058,6.2899 37.5,5.5C 37.8333,6.16667 38.1667,6.83333 38.5,7.5C 37.8826,7.61071 37.3826,7.94404 37,8.5C 36.5007,13.4889 36.3341,18.4889 36.5,23.5C 35.8333,23.1667 35.1667,22.8333 34.5,22.5C 34.1667,22.5 33.8333,22.5 33.5,22.5C 32.4324,21.5655 31.099,21.2322 29.5,21.5C 29.5,20.5 29.5,19.5 29.5,18.5C 30.8221,18.33 31.9887,18.6634 33,19.5C 33.8007,16.633 33.6341,13.9664 32.5,11.5C 30.369,10.6862 28.0356,10.1862 25.5,10C 23.6997,8.18813 22.0331,6.3548 20.5,4.5C 21.1667,2.83333 21.8333,1.16667 22.5,-0.5 Z"/></g>
<g><path style="opacity:1" fill="#99b2ef" d="M 18.5,4.5 C 19.1667,4.5 19.8333,4.5 20.5,4.5C 22.0331,6.3548 23.6997,8.18813 25.5,10C 28.0356,10.1862 30.369,10.6862 32.5,11.5C 24.1155,9.54808 21.4488,12.5481 24.5,20.5C 23.6798,22.1112 22.3464,22.7778 20.5,22.5C 20.1583,21.6618 19.4916,21.3284 18.5,21.5C 18.5,21.1667 18.5,20.8333 18.5,20.5C 19.4959,20.5858 20.3292,20.2524 21,19.5C 21.4966,17.1902 21.6633,14.8568 21.5,12.5C 19.8333,12.5 18.1667,12.5 16.5,12.5C 16.5,12.1667 16.5,11.8333 16.5,11.5C 17.4734,11.0133 18.4734,10.5133 19.5,10C 17.3652,8.44426 17.0319,6.61093 18.5,4.5 Z"/></g>
<g><path style="opacity:0.909" fill="#93b0ed" d="M 3.5,6.5 C 5.5,8.83333 7.5,11.1667 9.5,13.5C 7.4727,13.3379 5.4727,13.5045 3.5,14C 2.66337,15.0113 2.33003,16.1779 2.5,17.5C 1.93479,19.42 0.93479,21.0867 -0.5,22.5C -0.5,21.8333 -0.5,21.1667 -0.5,20.5C 0.448746,15.7776 1.78208,11.1109 3.5,6.5 Z"/></g>
<g><path style="opacity:1" fill="#758fdf" d="M 16.5,12.5 C 18.1667,12.5 19.8333,12.5 21.5,12.5C 21.6633,14.8568 21.4966,17.1902 21,19.5C 20.3292,20.2524 19.4959,20.5858 18.5,20.5C 16.5,20.5 14.5,20.5 12.5,20.5C 12.5,18.5 12.5,16.5 12.5,14.5C 13.287,12.8958 14.6203,12.2291 16.5,12.5 Z"/></g>
<g><path style="opacity:1" fill="#7d94df" d="M 32.5,11.5 C 33.6341,13.9664 33.8007,16.633 33,19.5C 31.9887,18.6634 30.8221,18.33 29.5,18.5C 29.5,19.5 29.5,20.5 29.5,21.5C 25.8206,21.667 23.154,23.3337 21.5,26.5C 20.7659,25.2921 20.4326,23.9587 20.5,22.5C 22.3464,22.7778 23.6798,22.1112 24.5,20.5C 21.4488,12.5481 24.1155,9.54808 32.5,11.5 Z"/></g>
<g><path style="opacity:1" fill="#6e88dc" d="M 9.5,13.5 C 9.83333,13.5 10.1667,13.5 10.5,13.5C 10.8016,16.0593 10.4682,18.3926 9.5,20.5C 7.16667,20.5 4.83333,20.5 2.5,20.5C 2.5,19.5 2.5,18.5 2.5,17.5C 2.33003,16.1779 2.66337,15.0113 3.5,14C 5.4727,13.5045 7.4727,13.3379 9.5,13.5 Z"/></g>
<g><path style="opacity:0.773" fill="#8da9ed" d="M 38.5,7.5 C 38.19,10.7131 38.5233,13.7131 39.5,16.5C 39.5,19.5 39.5,22.5 39.5,25.5C 37.9731,25.573 36.9731,24.9063 36.5,23.5C 36.3341,18.4889 36.5007,13.4889 37,8.5C 37.3826,7.94404 37.8826,7.61071 38.5,7.5 Z"/></g>
<g><path style="opacity:1" fill="#95b1f1" d="M 10.5,13.5 C 11.1667,13.8333 11.8333,14.1667 12.5,14.5C 12.5,16.5 12.5,18.5 12.5,20.5C 14.5,20.5 16.5,20.5 18.5,20.5C 18.5,20.8333 18.5,21.1667 18.5,21.5C 12.6036,20.8482 10.2703,23.5148 11.5,29.5C 10.8333,28.8333 10.1667,28.1667 9.5,27.5C 9.5,25.1667 9.5,22.8333 9.5,20.5C 10.4682,18.3926 10.8016,16.0593 10.5,13.5 Z"/></g>
<g><path style="opacity:1" fill="#718cdf" d="M 2.5,20.5 C 4.83333,20.5 7.16667,20.5 9.5,20.5C 9.5,22.8333 9.5,25.1667 9.5,27.5C 9.42265,28.7498 8.75598,29.5831 7.5,30C 5.5,30.6667 3.5,30.6667 1.5,30C 0.119594,26.8548 0.786261,24.1881 3.5,22C 2.94404,21.6174 2.61071,21.1174 2.5,20.5 Z"/></g>
<g><path style="opacity:1" fill="#6780d7" d="M 18.5,21.5 C 19.4916,21.3284 20.1583,21.6618 20.5,22.5C 20.4326,23.9587 20.7659,25.2921 21.5,26.5C 21.5,26.8333 21.5,27.1667 21.5,27.5C 20.596,28.209 20.2627,29.209 20.5,30.5C 17.8333,30.1667 15.1667,29.8333 12.5,29.5C 12.1667,29.5 11.8333,29.5 11.5,29.5C 10.2703,23.5148 12.6036,20.8482 18.5,21.5 Z"/></g>
<g><path style="opacity:1" fill="#eeba1e" d="M 29.5,21.5 C 31.099,21.2322 32.4324,21.5655 33.5,22.5C 26.9514,22.9071 26.9514,23.9071 33.5,25.5C 31.4269,27.2032 29.0936,28.3699 26.5,29C 27.3366,30.0113 27.67,31.1779 27.5,32.5C 25.8828,31.962 24.2161,31.6287 22.5,31.5C 22.5,32.8333 22.5,34.1667 22.5,35.5C 22.1667,35.5 21.8333,35.5 21.5,35.5C 21.5,32.8333 21.5,30.1667 21.5,27.5C 21.5,27.1667 21.5,26.8333 21.5,26.5C 23.154,23.3337 25.8206,21.667 29.5,21.5 Z"/></g>
<g><path style="opacity:1" fill="#e79d2b" d="M 33.5,22.5 C 33.8333,22.5 34.1667,22.5 34.5,22.5C 36.1791,24.6955 37.1791,27.1955 37.5,30C 37.6932,32.0081 37.0265,33.5081 35.5,34.5C 35.3015,32.0401 34.6348,29.7067 33.5,27.5C 31.3055,29.3153 30.9722,31.482 32.5,34C 30.9562,33.5134 29.2895,33.0134 27.5,32.5C 27.67,31.1779 27.3366,30.0113 26.5,29C 29.0936,28.3699 31.4269,27.2032 33.5,25.5C 26.9514,23.9071 26.9514,22.9071 33.5,22.5 Z"/></g>
<g><path style="opacity:0.978" fill="#95b1ef" d="M 2.5,17.5 C 2.5,18.5 2.5,19.5 2.5,20.5C 2.61071,21.1174 2.94404,21.6174 3.5,22C 0.786261,24.1881 0.119594,26.8548 1.5,30C 3.5,30.6667 5.5,30.6667 7.5,30C 8.75598,29.5831 9.42265,28.7498 9.5,27.5C 10.1667,28.1667 10.8333,28.8333 11.5,29.5C 11.8333,29.5 12.1667,29.5 12.5,29.5C 13.2341,30.7079 13.5674,32.0413 13.5,33.5C 9.29841,33.1832 5.29841,33.5166 1.5,34.5C 0.833333,34.5 0.166667,34.5 -0.5,34.5C -0.5,30.5 -0.5,26.5 -0.5,22.5C 0.93479,21.0867 1.93479,19.42 2.5,17.5 Z"/></g>
<g><path style="opacity:0.639" fill="#7583ca" d="M 21.5,27.5 C 21.5,30.1667 21.5,32.8333 21.5,35.5C 14.7446,35.7934 8.07794,35.4601 1.5,34.5C 5.29841,33.5166 9.29841,33.1832 13.5,33.5C 13.5674,32.0413 13.2341,30.7079 12.5,29.5C 15.1667,29.8333 17.8333,30.1667 20.5,30.5C 20.2627,29.209 20.596,28.209 21.5,27.5 Z"/></g>
<g><path style="opacity:1" fill="#f2c118" d="M 35.5,34.5 C 32.7209,35.6168 32.3876,36.7834 34.5,38C 33.2068,38.49 31.8734,38.6567 30.5,38.5C 29.8333,34.5 29.1667,34.5 28.5,38.5C 26.7839,38.3713 25.1172,38.038 23.5,37.5C 23.1667,36.8333 22.8333,36.1667 22.5,35.5C 22.5,34.1667 22.5,32.8333 22.5,31.5C 24.2161,31.6287 25.8828,31.962 27.5,32.5C 29.2895,33.0134 30.9562,33.5134 32.5,34C 30.9722,31.482 31.3055,29.3153 33.5,27.5C 34.6348,29.7067 35.3015,32.0401 35.5,34.5 Z"/></g>
<g><path style="opacity:0.945" fill="#eab018" d="M 34.5,22.5 C 35.1667,22.8333 35.8333,23.1667 36.5,23.5C 36.9731,24.9063 37.9731,25.573 39.5,25.5C 39.5,28.8333 39.5,32.1667 39.5,35.5C 38.5,37.1667 37.1667,38.5 35.5,39.5C 31.8333,39.5 28.1667,39.5 24.5,39.5C 24.1667,38.8333 23.8333,38.1667 23.5,37.5C 25.1172,38.038 26.7839,38.3713 28.5,38.5C 29.1667,34.5 29.8333,34.5 30.5,38.5C 31.8734,38.6567 33.2068,38.49 34.5,38C 32.3876,36.7834 32.7209,35.6168 35.5,34.5C 37.0265,33.5081 37.6932,32.0081 37.5,30C 37.1791,27.1955 36.1791,24.6955 34.5,22.5 Z"/></g>
</svg>
