<?xml version="1.0" encoding="UTF-8"?>
<!DOCTYPE svg PUBLIC "-//W3C//DTD SVG 1.1//EN" "http://www.w3.org/Graphics/SVG/1.1/DTD/svg11.dtd">
<svg xmlns="http://www.w3.org/2000/svg" version="1.1" width="40px" height="40px" style="shape-rendering:geometricPrecision; text-rendering:geometricPrecision; image-rendering:optimizeQuality; fill-rule:evenodd; clip-rule:evenodd" xmlns:xlink="http://www.w3.org/1999/xlink">
<g><path style="opacity:0.756" fill="#000000" d="M -0.5,33.5 C -0.5,32.1667 -0.5,30.8333 -0.5,29.5C 0.822066,29.33 1.98873,29.6634 3,30.5C 3.49977,21.5062 3.66644,12.5062 3.5,3.5C 4.83333,3.5 6.16667,3.5 7.5,3.5C 7.33356,12.5062 7.50023,21.5062 8,30.5C 9.01127,29.6634 10.1779,29.33 11.5,29.5C 9.8452,38.2438 5.8452,39.5771 -0.5,33.5 Z"/></g>
<g><path style="opacity:0.777" fill="#000000" d="M 39.5,7.5 C 39.5,8.83333 39.5,10.1667 39.5,11.5C 31.16,11.6664 22.8267,11.4997 14.5,11C 13.1667,10 13.1667,9 14.5,8C 22.8267,7.50027 31.16,7.3336 39.5,7.5 Z"/></g>
<g><path style="opacity:0.744" fill="#000000" d="M 14.5,14.5 C 21.175,14.3337 27.8417,14.5004 34.5,15C 35.3366,16.0113 35.67,17.1779 35.5,18.5C 28.4921,18.6663 21.4921,18.4996 14.5,18C 13.3157,16.8545 13.3157,15.6879 14.5,14.5 Z"/></g>
<g><path style="opacity:0.728" fill="#000000" d="M 14.5,22.5 C 20.1667,22.5 25.8333,22.5 31.5,22.5C 31.67,23.8221 31.3366,24.9887 30.5,26C 25.1667,26.6667 19.8333,26.6667 14.5,26C 13.3157,24.8545 13.3157,23.6879 14.5,22.5 Z"/></g>
</svg>
