<?xml version="1.0" encoding="UTF-8"?>
<!DOCTYPE svg PUBLIC "-//W3C//DTD SVG 1.1//EN" "http://www.w3.org/Graphics/SVG/1.1/DTD/svg11.dtd">
<svg xmlns="http://www.w3.org/2000/svg" version="1.1" width="40px" height="40px" style="shape-rendering:geometricPrecision; text-rendering:geometricPrecision; image-rendering:optimizeQuality; fill-rule:evenodd; clip-rule:evenodd" xmlns:xlink="http://www.w3.org/1999/xlink">
<g><path style="opacity:0.881" fill="#545965" d="M 13.5,3.5 C 20.6647,4.50984 23.1647,8.50984 21,15.5C 16.4276,20.8119 11.7609,20.8119 7,15.5C 5.30534,9.21253 7.47201,5.21253 13.5,3.5 Z M 12.5,6.5 C 18.4557,7.08657 20.2891,10.0866 18,15.5C 13.7807,18.1488 10.9474,16.9821 9.5,12C 9.61322,9.60127 10.6132,7.76794 12.5,6.5 Z"/></g>
<g><path style="opacity:0.888" fill="#525762" d="M 27.5,8.5 C 32.757,8.68799 34.9237,11.3547 34,16.5C 30.4922,20.436 27.1589,20.436 24,16.5C 22.7801,12.7069 23.9468,10.0402 27.5,8.5 Z M 27.5,11.5 C 32.1453,12.2801 32.6453,14.2801 29,17.5C 26.4077,15.9917 25.9077,13.9917 27.5,11.5 Z"/></g>
<g><path style="opacity:0.871" fill="#545964" d="M 23.5,22.5 C 23.5,23.1667 23.8333,23.5 24.5,23.5C 27.4474,27.0623 28.114,31.0623 26.5,35.5C 23.974,23.5976 16.974,20.0976 5.5,25C 2.84477,27.6293 1.84477,30.6293 2.5,34C 1.75618,35.0386 0.75618,35.5386 -0.5,35.5C -0.5,33.1667 -0.5,30.8333 -0.5,28.5C 0.983199,24.8532 3.64987,22.3532 7.5,21C 13.0496,20.0025 18.383,20.5025 23.5,22.5 Z"/></g>
<g><path style="opacity:0.872" fill="#595f6a" d="M 24.5,20.5 C 30.2356,19.5553 35.2356,20.8886 39.5,24.5C 39.5,27.1667 39.5,29.8333 39.5,32.5C 38.1915,29.1804 36.1915,26.1804 33.5,23.5C 30.2033,23.11 27.2033,22.11 24.5,20.5 Z"/></g>
<g><path style="opacity:0.171" fill="#33373e" d="M 24.5,20.5 C 27.2033,22.11 30.2033,23.11 33.5,23.5C 30.5,23.5 27.5,23.5 24.5,23.5C 23.8333,23.5 23.5,23.1667 23.5,22.5C 23.3284,21.5084 23.6618,20.8417 24.5,20.5 Z"/></g>
</svg>
