<?xml version="1.0" encoding="UTF-8"?>
<!DOCTYPE svg PUBLIC "-//W3C//DTD SVG 1.1//EN" "http://www.w3.org/Graphics/SVG/1.1/DTD/svg11.dtd">
<svg xmlns="http://www.w3.org/2000/svg" version="1.1" width="40px" height="40px" style="shape-rendering:geometricPrecision; text-rendering:geometricPrecision; image-rendering:optimizeQuality; fill-rule:evenodd; clip-rule:evenodd" xmlns:xlink="http://www.w3.org/1999/xlink">
<g><path style="opacity:1" fill="#fcfcfd" d="M -0.5,-0.5 C 2.16667,-0.5 4.83333,-0.5 7.5,-0.5C 7.9528,0.458367 8.61947,1.2917 9.5,2C 7.5273,2.49546 5.5273,2.66212 3.5,2.5C 3.18745,14.9133 3.52078,27.2467 4.5,39.5C 2.83333,39.5 1.16667,39.5 -0.5,39.5C -0.5,26.1667 -0.5,12.8333 -0.5,-0.5 Z"/></g>
<g><path style="opacity:1" fill="#f8f8f9" d="M 29.5,-0.5 C 32.8333,-0.5 36.1667,-0.5 39.5,-0.5C 39.5,4.5 39.5,9.5 39.5,14.5C 37.629,14.8588 36.129,15.8588 35,17.5C 34.5007,12.5111 34.3341,7.51108 34.5,2.5C 32.0672,2.7271 30.4006,1.7271 29.5,-0.5 Z"/></g>
<g><path style="opacity:1" fill="#848a96" d="M 7.5,-0.5 C 8.16667,-0.5 8.83333,-0.5 9.5,-0.5C 11.0528,2.25403 13.3861,3.08736 16.5,2C 15.6195,1.2917 14.9528,0.458367 14.5,-0.5C 15.1667,-0.5 15.8333,-0.5 16.5,-0.5C 18.0528,2.25403 20.3861,3.08736 23.5,2C 22.6195,1.2917 21.9528,0.458367 21.5,-0.5C 22.1667,-0.5 22.8333,-0.5 23.5,-0.5C 24.7058,2.13906 26.7058,2.97239 29.5,2C 28.6195,1.2917 27.9528,0.458367 27.5,-0.5C 28.1667,-0.5 28.8333,-0.5 29.5,-0.5C 30.4006,1.7271 32.0672,2.7271 34.5,2.5C 34.3341,7.51108 34.5007,12.5111 35,17.5C 36.129,15.8588 37.629,14.8588 39.5,14.5C 39.5,15.1667 39.5,15.8333 39.5,16.5C 37.0155,17.7399 37.0155,18.7399 39.5,19.5C 39.5,20.5 39.5,21.5 39.5,22.5C 37.8712,23.6253 36.3712,24.9586 35,26.5C 34.501,30.8206 34.3343,35.1539 34.5,39.5C 24.5,39.5 14.5,39.5 4.5,39.5C 3.52078,27.2467 3.18745,14.9133 3.5,2.5C 5.5273,2.66212 7.5273,2.49546 9.5,2C 8.61947,1.2917 7.9528,0.458367 7.5,-0.5 Z"/></g>
<g><path style="opacity:1" fill="#d6d8dc" d="M 23.5,-0.5 C 24.8333,-0.5 26.1667,-0.5 27.5,-0.5C 27.9528,0.458367 28.6195,1.2917 29.5,2C 26.7058,2.97239 24.7058,2.13906 23.5,-0.5 Z"/></g>
<g><path style="opacity:1" fill="#dfe0e3" d="M 9.5,-0.5 C 11.1667,-0.5 12.8333,-0.5 14.5,-0.5C 14.9528,0.458367 15.6195,1.2917 16.5,2C 13.3861,3.08736 11.0528,2.25403 9.5,-0.5 Z"/></g>
<g><path style="opacity:1" fill="#e8e9eb" d="M 16.5,-0.5 C 18.1667,-0.5 19.8333,-0.5 21.5,-0.5C 21.9528,0.458367 22.6195,1.2917 23.5,2C 20.3861,3.08736 18.0528,2.25403 16.5,-0.5 Z"/></g>
<g><path style="opacity:1" fill="#b5b9c0" d="M 9.5,5.5 C 9.44001,6.04309 9.10667,6.37642 8.5,6.5C 7.83333,5.83333 7.16667,5.16667 6.5,4.5C 5.50122,15.4798 5.16789,26.4798 5.5,37.5C 4.50523,26.3456 4.1719,15.0123 4.5,3.5C 6.78121,3.07729 8.44787,3.74395 9.5,5.5 Z"/></g>
<g><path style="opacity:1" fill="#f2f2f3" d="M 25.5,4.5 C 26.7348,4.72142 27.7348,5.38809 28.5,6.5C 29.1067,6.37642 29.44,6.04309 29.5,5.5C 30.4822,4.85917 31.4822,4.19251 32.5,3.5C 33.6628,8.80234 33.8295,14.1357 33,19.5C 29.6667,22.8333 26.3333,26.1667 23,29.5C 21.872,31.3453 21.372,33.3453 21.5,35.5C 26.4335,35.0835 30.2669,32.7502 33,28.5C 33.498,31.4816 33.6646,34.4816 33.5,37.5C 24.1667,37.5 14.8333,37.5 5.5,37.5C 5.16789,26.4798 5.50122,15.4798 6.5,4.5C 7.16667,5.16667 7.83333,5.83333 8.5,6.5C 9.10667,6.37642 9.44001,6.04309 9.5,5.5C 11.5671,3.48772 13.9004,3.15439 16.5,4.5C 15.9747,5.19238 15.3081,5.69238 14.5,6C 15,6.16667 15.5,6.33333 16,6.5C 17.4788,5.24396 19.1454,4.24396 21,3.5C 24.063,3.93504 24.2297,4.76838 21.5,6C 23.3524,6.7726 24.6857,6.2726 25.5,4.5 Z"/></g>
<g><path style="opacity:1" fill="#b9bcc2" d="M 25.5,4.5 C 25.9169,3.87605 26.5836,3.54272 27.5,3.5C 28.7133,3.74716 29.38,4.41383 29.5,5.5C 29.44,6.04309 29.1067,6.37642 28.5,6.5C 27.7348,5.38809 26.7348,4.72142 25.5,4.5 Z"/></g>
<g><path style="opacity:1" fill="#989da7" d="M 7.5,9.5 C 13.5,8.16667 15.8333,10.5 14.5,16.5C 12.1667,16.5 9.83333,16.5 7.5,16.5C 7.5,14.1667 7.5,11.8333 7.5,9.5 Z"/></g>
<g><path style="opacity:1" fill="#fbfbfb" d="M 9.5,11.5 C 10.5,11.5 11.5,11.5 12.5,11.5C 12.5,12.5 12.5,13.5 12.5,14.5C 11.5,14.5 10.5,14.5 9.5,14.5C 9.5,13.5 9.5,12.5 9.5,11.5 Z"/></g>
<g><path style="opacity:1" fill="#f4f4f5" d="M 39.5,16.5 C 39.5,17.5 39.5,18.5 39.5,19.5C 37.0155,18.7399 37.0155,17.7399 39.5,16.5 Z"/></g>
<g><path style="opacity:1" fill="#9398a2" d="M 17.5,18.5 C 21.8839,18.1744 26.2172,18.5078 30.5,19.5C 28.3333,19.8333 26.1667,20.1667 24,20.5C 21.3897,20.4668 19.223,19.8001 17.5,18.5 Z"/></g>
<g><path style="opacity:1" fill="#9196a1" d="M 7.5,18.5 C 9.83333,18.5 12.1667,18.5 14.5,18.5C 14.5,20.5 14.5,22.5 14.5,24.5C 12.1667,24.5 9.83333,24.5 7.5,24.5C 7.5,22.5 7.5,20.5 7.5,18.5 Z"/></g>
<g><path style="opacity:1" fill="#f5f5f6" d="M 9.5,20.5 C 10.5,20.5 11.5,20.5 12.5,20.5C 12.5,21.5 12.5,22.5 12.5,23.5C 11.5,23.5 10.5,23.5 9.5,23.5C 9.5,22.5 9.5,21.5 9.5,20.5 Z"/></g>
<g><path style="opacity:1" fill="#e5e6e9" d="M 34.5,19.5 C 36.6859,19.5106 37.5192,20.5106 37,22.5C 33.2782,26.725 29.1115,30.3916 24.5,33.5C 23.4104,32.6086 23.4104,31.6086 24.5,30.5C 28.0911,26.9174 31.4244,23.2508 34.5,19.5 Z"/></g>
<g><path style="opacity:1" fill="#abafb7" d="M 17.5,21.5 C 19.924,21.1924 22.2573,21.5258 24.5,22.5C 23.3333,22.8333 22.1667,23.1667 21,23.5C 19.3189,23.3917 18.1522,22.7251 17.5,21.5 Z"/></g>
<g><path style="opacity:1" fill="#f9f9f9" d="M 39.5,22.5 C 39.5,28.1667 39.5,33.8333 39.5,39.5C 37.8333,39.5 36.1667,39.5 34.5,39.5C 34.3343,35.1539 34.501,30.8206 35,26.5C 36.3712,24.9586 37.8712,23.6253 39.5,22.5 Z"/></g>
<g><path style="opacity:1" fill="#959aa4" d="M 7.5,27.5 C 9.83333,27.5 12.1667,27.5 14.5,27.5C 14.5,29.5 14.5,31.5 14.5,33.5C 12.1667,33.5 9.83333,33.5 7.5,33.5C 7.5,31.5 7.5,29.5 7.5,27.5 Z"/></g>
<g><path style="opacity:1" fill="#f2f3f4" d="M 9.5,28.5 C 10.5,28.5 11.5,28.5 12.5,28.5C 12.5,29.5 12.5,30.5 12.5,31.5C 11.5,31.5 10.5,31.5 9.5,31.5C 9.5,30.5 9.5,29.5 9.5,28.5 Z"/></g>
</svg>
