<?xml version="1.0" encoding="UTF-8"?>
<!DOCTYPE svg PUBLIC "-//W3C//DTD SVG 1.1//EN" "http://www.w3.org/Graphics/SVG/1.1/DTD/svg11.dtd">
<svg xmlns="http://www.w3.org/2000/svg" version="1.1" width="40px" height="40px" style="shape-rendering:geometricPrecision; text-rendering:geometricPrecision; image-rendering:optimizeQuality; fill-rule:evenodd; clip-rule:evenodd" xmlns:xlink="http://www.w3.org/1999/xlink">
<g><path style="opacity:0.904" fill="#525862" d="M 39.5,12.5 C 39.5,13.1667 39.5,13.8333 39.5,14.5C 38.5,14.5 37.5,14.5 36.5,14.5C 36.9272,18.8244 37.2605,23.1578 37.5,27.5C 35.8333,27.5 34.1667,27.5 32.5,27.5C 32.9926,25.1944 33.3259,22.861 33.5,20.5C 33.7678,18.901 33.4345,17.5676 32.5,16.5C 31.5119,21.6405 31.1786,26.9738 31.5,32.5C 23.1809,35.1028 14.8476,35.1028 6.5,32.5C 6.82818,27.1254 6.49485,21.7921 5.5,16.5C 3.67702,15.2528 1.67702,14.5861 -0.5,14.5C -0.5,13.8333 -0.5,13.1667 -0.5,12.5C 6.14543,9.84623 12.8121,7.17956 19.5,4.5C 26.1879,7.17956 32.8546,9.84623 39.5,12.5 Z M 17.5,7.5 C 22.8931,9.02036 28.2264,10.8537 33.5,13C 28.228,16.3161 22.5613,17.9828 16.5,18C 12.7143,16.6074 9.04768,14.9407 5.5,13C 9.81352,11.6282 13.8135,9.7949 17.5,7.5 Z M 10.5,18.5 C 16.5,22.5 22.5,22.5 28.5,18.5C 29.4731,20.9479 29.8064,23.6146 29.5,26.5C 22.8333,27.8333 16.1667,27.8333 9.5,26.5C 9.1936,23.6146 9.52693,20.9479 10.5,18.5 Z M 27.5,29.5 C 28.4916,29.3284 29.1583,29.6618 29.5,30.5C 22.7855,31.9963 16.1188,31.8296 9.5,30C 15.5093,30.6991 21.5093,30.5324 27.5,29.5 Z"/></g>
<g><path style="opacity:0.371" fill="#32363c" d="M 32.5,16.5 C 32.2322,18.099 32.5655,19.4324 33.5,20.5C 33.3259,22.861 32.9926,25.1944 32.5,27.5C 32.7845,29.4147 32.4511,31.0813 31.5,32.5C 31.1786,26.9738 31.5119,21.6405 32.5,16.5 Z"/></g>
<g><path style="opacity:0.251" fill="#32363c" d="M 10.5,18.5 C 9.52693,20.9479 9.1936,23.6146 9.5,26.5C 8.1968,23.6447 8.1968,20.6447 9.5,17.5C 10.1067,17.6236 10.44,17.9569 10.5,18.5 Z"/></g>
<g><path style="opacity:0.251" fill="#32363c" d="M 28.5,18.5 C 28.56,17.9569 28.8933,17.6236 29.5,17.5C 30.8032,20.6447 30.8032,23.6447 29.5,26.5C 29.8064,23.6146 29.4731,20.9479 28.5,18.5 Z"/></g>
<g><path style="opacity:0.251" fill="#2e3238" d="M 27.5,29.5 C 28.3864,28.2241 29.3864,28.2241 30.5,29.5C 30.3764,30.1067 30.0431,30.44 29.5,30.5C 29.1583,29.6618 28.4916,29.3284 27.5,29.5 Z"/></g>
</svg>
