<?xml version="1.0" encoding="UTF-8"?>
<!DOCTYPE svg PUBLIC "-//W3C//DTD SVG 1.1//EN" "http://www.w3.org/Graphics/SVG/1.1/DTD/svg11.dtd">
<svg xmlns="http://www.w3.org/2000/svg" version="1.1" width="40px" height="40px" style="shape-rendering:geometricPrecision; text-rendering:geometricPrecision; image-rendering:optimizeQuality; fill-rule:evenodd; clip-rule:evenodd" xmlns:xlink="http://www.w3.org/1999/xlink">
<g><path style="opacity:0.707" fill="#6b7280" d="M 39.5,20.5 C 39.5,21.8333 39.5,23.1667 39.5,24.5C 38.802,26.6669 37.4687,28.5002 35.5,30C 31.1667,30.6667 26.8333,30.6667 22.5,30C 27.0357,29.0597 31.5357,27.893 36,26.5C 37.6092,21.293 35.7759,18.293 30.5,17.5C 29.2059,8.70594 24.2059,5.20594 15.5,7C 11.0376,9.07459 8.37096,12.5746 7.5,17.5C 0.608908,19.9786 -0.0577592,23.4786 5.5,28C 8.88182,28.1764 12.2152,28.6764 15.5,29.5C 9.40686,31.5644 4.07353,30.5644 -0.5,26.5C -0.5,24.5 -0.5,22.5 -0.5,20.5C 0.998137,17.6691 3.33147,16.0025 6.5,15.5C 6.96279,10.7381 9.29612,7.23807 13.5,5C 17.1667,4.33333 20.8333,4.33333 24.5,5C 29.5847,10.2356 34.5847,15.4023 39.5,20.5 Z"/></g>
<g><path style="opacity:0.746" fill="#6b7180" d="M 17.5,18.5 C 21.7131,18.866 24.7131,21.0327 26.5,25C 26.1667,25.5 25.8333,26 25.5,26.5C 23.8513,25.3523 22.3513,24.019 21,22.5C 19.869,39.5048 18.869,39.1714 18,21.5C 16.3333,23.1667 14.6667,24.8333 13,26.5C 12.8333,26 12.6667,25.5 12.5,25C 13.9852,22.683 15.6519,20.5164 17.5,18.5 Z"/></g>
</svg>
